<?xml version="1.0" encoding="utf-8"?>
<!-- Generator: Adobe Illustrator 16.0.0, SVG Export Plug-In . SVG Version: 6.00 Build 0)  -->
<!DOCTYPE svg PUBLIC "-//W3C//DTD SVG 1.1//EN" "http://www.w3.org/Graphics/SVG/1.1/DTD/svg11.dtd">
<svg version="1.1" id="图层_1" xmlns="http://www.w3.org/2000/svg" xmlns:xlink="http://www.w3.org/1999/xlink" x="0px" y="0px"
	 width="300px" height="300px" viewBox="0 0 300 300" enable-background="new 0 0 300 300" xml:space="preserve">
<g>
	<defs>
		<rect id="SVGID_1_" x="23.089" y="20.098" width="253.823" height="254.925"/>
	</defs>
	<clipPath id="SVGID_2_">
		<use xlink:href="#SVGID_1_"  overflow="visible"/>
	</clipPath>
	<g clip-path="url(#SVGID_2_)">
		<defs>
			<rect id="SVGID_3_" x="23.089" y="20.099" width="253.823" height="254.925"/>
		</defs>
		<clipPath id="SVGID_4_">
			<use xlink:href="#SVGID_3_"  overflow="visible"/>
		</clipPath>
		<g clip-path="url(#SVGID_4_)">
			<g>
				<path fill="#FFFFFF" d="M150.001,269.561c-12.531,0-24.417-3.664-34.432-10.309c-3.272-1.398-6.426-3.084-9.427-5.039
					c-3.638-0.77-7.19-1.863-10.618-3.26c-11.836-2.422-22.715-8.244-31.455-16.982c-8.939-8.938-14.779-20.047-17.127-31.943
					c-1.256-3.17-2.254-6.441-2.979-9.781c-2.093-3.184-3.88-6.539-5.344-10.021c-6.55-9.969-10.157-21.768-10.157-34.205
					c0-12.529,3.665-24.418,10.31-34.436c1.399-3.271,3.082-6.425,5.038-9.426c0.758-3.578,1.83-7.077,3.195-10.454
					c2.383-11.769,8.189-22.755,17.036-31.609c8.843-8.832,19.833-14.682,31.781-17.066c3.222-1.288,6.552-2.31,9.954-3.048
					c3.184-2.095,6.537-3.882,10.027-5.347c9.965-6.546,21.764-10.153,34.198-10.153c12.524,0,24.409,3.663,34.422,10.303
					c3.279,1.4,6.436,3.085,9.441,5.044c3.633,0.771,7.186,1.865,10.611,3.26c11.828,2.419,22.703,8.237,31.441,16.965
					c8.949,8.95,14.791,20.063,17.141,31.958c1.266,3.194,2.27,6.494,2.996,9.865c2.008,3.082,3.738,6.328,5.17,9.696
					c6.65,10.019,10.316,21.907,10.316,34.446c0,12.529-3.666,24.416-10.309,34.431c-1.4,3.273-3.082,6.428-5.037,9.43
					c-0.762,3.582-1.832,7.082-3.199,10.461c-2.385,11.768-8.193,22.754-17.043,31.607c-8.84,8.83-19.83,14.68-31.777,17.064
					c-3.225,1.287-6.555,2.311-9.957,3.049c-3.182,2.09-6.531,3.875-10.014,5.34C174.238,265.949,162.436,269.561,150.001,269.561z"
					/>
				<g>
					<g>
						<path fill="#FFFFFF" d="M155.5,269.561c0,3.018-2.463,5.463-5.499,5.463c-1.651,0.002-3.131-0.676-4.122-1.729
							c-0.998-1.047-1.505-2.475-1.372-3.973c0.133-1.506,0.851-2.805,1.841-3.738c0.996-0.93,2.266-1.486,3.653-1.486
							C153.037,264.098,155.5,266.543,155.5,269.561z"/>
						<path fill="#FFFFFF" d="M141.771,269.027c-0.192,1.49-0.994,2.773-2.193,3.586c-1.195,0.814-2.788,1.154-4.404,0.795
							c-1.615-0.355-2.916-1.34-3.656-2.582c-0.746-1.24-0.93-2.744-0.473-4.178c0.459-1.441,1.443-2.551,2.611-3.246
							c1.174-0.691,2.529-0.959,3.88-0.662c1.35,0.301,2.466,1.119,3.239,2.238C141.54,266.104,141.964,267.525,141.771,269.027z"/>
					</g>
					<g>
						<path fill="#FFFFFF" d="M141.771,269.027c-0.192,1.49-0.994,2.773-2.193,3.586c-1.195,0.814-2.788,1.154-4.404,0.795
							c-1.615-0.355-2.916-1.34-3.656-2.582c-0.746-1.24-0.93-2.744-0.473-4.178c0.459-1.441,1.443-2.551,2.611-3.246
							c1.174-0.691,2.529-0.959,3.88-0.662c1.35,0.301,2.466,1.119,3.239,2.238C141.54,266.104,141.964,267.525,141.771,269.027z"/>
						<path fill="#FFFFFF" d="M128.438,265.76c-0.515,1.412-1.579,2.492-2.928,3.018c-1.345,0.531-2.977,0.516-4.475-0.191
							c-1.499-0.707-2.552-1.951-2.998-3.33c-0.453-1.375-0.3-2.881,0.462-4.178c0.767-1.305,1.973-2.17,3.266-2.588
							c1.296-0.414,2.677-0.377,3.928,0.209c1.248,0.592,2.157,1.631,2.663,2.895C128.854,262.859,128.956,264.338,128.438,265.76z"
							/>
					</g>
					<g>
						<path fill="#FFFFFF" d="M128.438,265.76c-0.515,1.412-1.579,2.492-2.928,3.018c-1.345,0.531-2.977,0.516-4.475-0.191
							c-1.499-0.707-2.552-1.951-2.998-3.33c-0.453-1.375-0.3-2.881,0.462-4.178c0.767-1.305,1.973-2.17,3.266-2.588
							c1.296-0.414,2.677-0.377,3.928,0.209c1.248,0.592,2.157,1.631,2.663,2.895C128.854,262.859,128.956,264.338,128.438,265.76z"
							/>
						<path fill="#FFFFFF" d="M116.155,259.633c-0.205,0.316-0.438,0.605-0.693,0.863c-0.262,0.254-0.545,0.479-0.773,0.721
							c-0.238,0.23-0.465,0.457-0.668,0.691c-0.139,0.256-0.525,0.381-0.856,0.506c-1.366,0.477-2.997,0.391-4.463-0.383
							c-1.467-0.768-2.472-2.049-2.856-3.447c-0.098-0.348-0.16-0.701-0.184-1.057c-0.01-0.352-0.037-0.736,0.091-1.043
							c0.191-0.652,0.392-1.377,0.729-2.057s0.796-1.238,1.458-1.592c0.362-0.156,0.622-0.359,0.946-0.498
							c0.313-0.148,0.638-0.27,0.966-0.361c1.309-0.354,2.693-0.268,3.916,0.375s2.086,1.721,2.539,3.004
							c0.124,0.324,0.148,0.631,0.373,1.049c0.168,0.373,0.228,0.785,0.219,1.176c0.006,0.393-0.098,0.734-0.236,1.068
							C116.528,258.986,116.36,259.316,116.155,259.633z"/>
					</g>
					<g>
						<path fill="#FFFFFF" d="M116.155,259.633c-0.205,0.316-0.438,0.605-0.693,0.863c-0.262,0.254-0.545,0.479-0.773,0.721
							c-0.238,0.23-0.465,0.457-0.668,0.691c-0.139,0.256-0.525,0.381-0.856,0.506c-1.366,0.477-2.997,0.391-4.463-0.383
							c-1.467-0.768-2.472-2.049-2.856-3.447c-0.098-0.348-0.16-0.701-0.184-1.057c-0.01-0.352-0.037-0.736,0.091-1.043
							c0.191-0.652,0.392-1.377,0.729-2.057s0.796-1.238,1.458-1.592c0.362-0.156,0.622-0.359,0.946-0.498
							c0.313-0.148,0.638-0.27,0.966-0.361c1.309-0.354,2.693-0.268,3.916,0.375s2.086,1.721,2.539,3.004
							c0.124,0.324,0.148,0.631,0.373,1.049c0.168,0.373,0.228,0.785,0.219,1.176c0.006,0.393-0.098,0.734-0.236,1.068
							C116.528,258.986,116.36,259.316,116.155,259.633z"/>
						<path fill="#FFFFFF" d="M103.851,253.68c-0.367,1.467-1.309,2.639-2.598,3.309c-1.279,0.664-2.904,0.826-4.465,0.275
							c-0.631-0.211-1.194-0.539-1.689-0.912c-0.439-0.363-1.09-0.914-0.849-1.178c-0.005-0.127,0.032-0.256-0.03-0.416
							c-0.131-0.174-0.249-0.354-0.355-0.537c-0.215-0.371-0.379-0.771-0.49-1.182c-0.225-0.822-0.24-1.697-0.027-2.574
							c0.212-0.875,0.625-1.65,1.156-2.295c0.267-0.324,0.563-0.609,0.883-0.869c0.16-0.127,0.326-0.246,0.496-0.355
							c0.237-0.096,0.592-0.156,0.918-0.215c1.091,0.07,1.389-0.096,1.976-0.066c0.54-0.002,1.072,0.104,1.603,0.279
							c1.305,0.461,2.319,1.395,2.955,2.604C103.964,250.746,104.216,252.219,103.851,253.68z"/>
					</g>
					<g>
						<path fill="#FFFFFF" d="M103.851,253.68c-0.367,1.467-1.309,2.639-2.598,3.309c-1.279,0.664-2.904,0.826-4.465,0.275
							c-0.631-0.211-1.194-0.539-1.689-0.912c-0.439-0.363-1.09-0.914-0.849-1.178c-0.005-0.127,0.032-0.256-0.03-0.416
							c-0.131-0.174-0.249-0.354-0.355-0.537c-0.215-0.371-0.379-0.771-0.49-1.182c-0.225-0.822-0.24-1.697-0.027-2.574
							c0.212-0.875,0.625-1.65,1.156-2.295c0.267-0.324,0.563-0.609,0.883-0.869c0.16-0.127,0.326-0.246,0.496-0.355
							c0.237-0.096,0.592-0.156,0.918-0.215c1.091,0.07,1.389-0.096,1.976-0.066c0.54-0.002,1.072,0.104,1.603,0.279
							c1.305,0.461,2.319,1.395,2.955,2.604C103.964,250.746,104.216,252.219,103.851,253.68z"/>
						<path fill="#FFFFFF" d="M90.686,249.756c-0.417,1.447-1.403,2.592-2.714,3.213c-1.305,0.619-2.934,0.715-4.477,0.111
							c-1.544-0.602-2.683-1.766-3.221-3.111c-0.545-1.346-0.499-2.852,0.176-4.201c0.672-1.35,1.82-2.305,3.079-2.807
							c1.263-0.498,2.646-0.564,3.933-0.061c1.287,0.502,2.264,1.479,2.855,2.707C90.903,246.832,91.104,248.305,90.686,249.756z"/>
					</g>
					<g>
						<path fill="#FFFFFF" d="M90.686,249.756c-0.417,1.447-1.403,2.592-2.714,3.213c-1.305,0.619-2.934,0.715-4.477,0.111
							c-1.544-0.602-2.683-1.766-3.221-3.111c-0.545-1.346-0.499-2.852,0.176-4.201c0.672-1.35,1.82-2.305,3.079-2.807
							c1.263-0.498,2.646-0.564,3.933-0.061c1.287,0.502,2.264,1.479,2.855,2.707C90.903,246.832,91.104,248.305,90.686,249.756z"/>
						<path fill="#FFFFFF" d="M78.012,244.486c-0.729,1.324-1.941,2.215-3.358,2.533c-1.41,0.316-3.018,0.047-4.389-0.883
							c-1.371-0.926-2.221-2.316-2.451-3.742c-0.233-1.434,0.142-2.889,1.096-4.061c0.953-1.166,2.283-1.846,3.622-2.057
							c1.346-0.213,2.708,0.035,3.854,0.809c1.146,0.775,1.882,1.947,2.186,3.273C78.873,241.682,78.739,243.168,78.012,244.486z"/>
					</g>
					<g>
						<path fill="#FFFFFF" d="M78.012,244.486c-0.729,1.324-1.941,2.215-3.358,2.533c-1.41,0.316-3.018,0.047-4.389-0.883
							c-1.371-0.926-2.221-2.316-2.451-3.742c-0.233-1.434,0.142-2.889,1.096-4.061c0.953-1.166,2.283-1.846,3.622-2.057
							c1.346-0.213,2.708,0.035,3.854,0.809c1.146,0.775,1.882,1.947,2.186,3.273C78.873,241.682,78.739,243.168,78.012,244.486z"/>
						<path fill="#FFFFFF" d="M66.812,236.553c-1.001,1.131-2.378,1.734-3.829,1.738c-1.445,0.002-2.95-0.607-4.086-1.807
							c-1.136-1.201-1.668-2.736-1.584-4.18c0.081-1.449,0.759-2.789,1.942-3.729c1.181-0.936,2.627-1.314,3.98-1.232
							c1.357,0.086,2.639,0.617,3.592,1.625c0.954,1.006,1.42,2.314,1.431,3.676C68.266,234,67.81,235.424,66.812,236.553z"/>
					</g>
					<g>
						<path fill="#FFFFFF" d="M66.812,236.553c-1.001,1.131-2.378,1.734-3.829,1.738c-1.445,0.002-2.95-0.607-4.086-1.807
							c-1.136-1.201-1.668-2.736-1.584-4.18c0.081-1.449,0.759-2.789,1.942-3.729c1.181-0.936,2.627-1.314,3.98-1.232
							c1.357,0.086,2.639,0.617,3.592,1.625c0.954,1.006,1.42,2.314,1.431,3.676C68.266,234,67.81,235.424,66.812,236.553z"/>
						<path fill="#FFFFFF" d="M57.589,226.383c-1.219,0.891-2.696,1.188-4.114,0.875c-1.409-0.311-2.754-1.232-3.604-2.652
							c-0.851-1.422-1.038-3.039-0.639-4.432c0.394-1.398,1.35-2.559,2.71-3.213c1.357-0.654,2.85-0.707,4.153-0.334
							c1.304,0.379,2.438,1.174,3.147,2.361c0.71,1.188,0.885,2.559,0.598,3.891C59.556,224.205,58.808,225.496,57.589,226.383z"/>
					</g>
					<g>
						<path fill="#FFFFFF" d="M57.589,226.383c-1.219,0.891-2.696,1.188-4.114,0.875c-1.409-0.311-2.754-1.232-3.604-2.652
							c-0.851-1.422-1.038-3.039-0.639-4.432c0.394-1.398,1.35-2.559,2.71-3.213c1.357-0.654,2.85-0.707,4.153-0.334
							c1.304,0.379,2.438,1.174,3.147,2.361c0.71,1.188,0.885,2.559,0.598,3.891C59.556,224.205,58.808,225.496,57.589,226.383z"/>
						<path fill="#FFFFFF" d="M50.799,214.455c-1.386,0.6-2.892,0.564-4.207-0.053c-1.307-0.613-2.415-1.811-2.931-3.385
							s-0.34-3.193,0.355-4.467c0.693-1.275,1.883-2.195,3.355-2.533c1.467-0.338,2.936-0.059,4.123,0.594
							c1.188,0.658,2.117,1.684,2.547,2.998c0.43,1.313,0.297,2.688-0.275,3.924C53.196,212.764,52.182,213.855,50.799,214.455z"/>
					</g>
					<g>
						<path fill="#FFFFFF" d="M50.799,214.455c-1.386,0.6-2.892,0.564-4.207-0.053c-1.307-0.613-2.415-1.811-2.931-3.385
							s-0.34-3.193,0.355-4.467c0.693-1.275,1.883-2.195,3.355-2.533c1.467-0.338,2.936-0.059,4.123,0.594
							c1.188,0.658,2.117,1.684,2.547,2.998c0.43,1.313,0.297,2.688-0.275,3.924C53.196,212.764,52.182,213.855,50.799,214.455z"/>
						<path fill="#FFFFFF" d="M46.685,201.357c-1.408,0.541-2.913,0.445-4.199-0.223c-1.279-0.664-2.347-1.9-2.795-3.494
							c-0.223-0.795-0.283-1.594-0.183-2.352c0.048-0.373,0.127-0.752,0.255-1.086c0.179-0.1,0.378-0.234,0.594-0.4
							c0.402-0.34,0.829-0.729,1.244-1.303c0.396-0.592,0.923-1.104,1.563-1.504c0.64-0.398,1.331-0.65,2.028-0.771
							c0.334-0.086,0.764,0.012,1.177,0.113c0.211,0.061,0.428,0.141,0.649,0.234c0.217,0.098,0.473,0.199,0.609,0.369
							c0.326,0.316,0.646,0.715,0.955,1.184c0.252,0.24,0.485,0.467,0.693,0.732c0.411,0.521,0.733,1.117,0.92,1.785
							c0.375,1.332,0.197,2.701-0.428,3.914C49.147,199.764,48.092,200.816,46.685,201.357z"/>
					</g>
					<g>
						<path fill="#FFFFFF" d="M46.685,201.357c-1.408,0.541-2.913,0.445-4.199-0.223c-1.279-0.664-2.347-1.9-2.795-3.494
							c-0.223-0.795-0.283-1.594-0.183-2.352c0.048-0.373,0.127-0.752,0.255-1.086c0.179-0.1,0.378-0.234,0.594-0.4
							c0.402-0.34,0.829-0.729,1.244-1.303c0.396-0.592,0.923-1.104,1.563-1.504c0.64-0.398,1.331-0.65,2.028-0.771
							c0.334-0.086,0.764,0.012,1.177,0.113c0.211,0.061,0.428,0.141,0.649,0.234c0.217,0.098,0.473,0.199,0.609,0.369
							c0.326,0.316,0.646,0.715,0.955,1.184c0.252,0.24,0.485,0.467,0.693,0.732c0.411,0.521,0.733,1.117,0.92,1.785
							c0.375,1.332,0.197,2.701-0.428,3.914C49.147,199.764,48.092,200.816,46.685,201.357z"/>
						<path fill="#FFFFFF" d="M41.759,188.629c-1.313,0.744-2.809,0.865-4.186,0.396c-1.362-0.473-2.6-1.541-3.277-3.053
							c-0.174-0.375-0.293-0.766-0.383-1.148c-0.014-0.205,0.182-0.063,0.203-0.295c-0.157-0.746-0.146-1.504-0.003-2.209
							c0.3-1.422,1.177-2.645,2.489-3.391c1.311-0.746,2.795-0.898,4.118-0.613c0.67,0.141,1.292,0.398,1.854,0.754
							c0.02,0.014,0.033,0.02,0.055,0.037l0.087,0.09l0.173,0.18l0.348,0.381l0.274,0.449c0.083,0.137,0.204,0.361,0.234,0.387
							c0.199,0.27,0.361,0.568,0.508,0.883c0.563,1.26,0.587,2.637,0.146,3.928C43.968,186.688,43.071,187.887,41.759,188.629z"/>
					</g>
					<g>
						<path fill="#FFFFFF" d="M41.759,188.629c-1.313,0.744-2.809,0.865-4.186,0.396c-1.362-0.473-2.6-1.541-3.277-3.053
							c-0.174-0.375-0.293-0.766-0.383-1.148c-0.014-0.205,0.182-0.063,0.203-0.295c-0.157-0.746-0.146-1.504-0.003-2.209
							c0.3-1.422,1.177-2.645,2.489-3.391c1.311-0.746,2.795-0.898,4.118-0.613c0.67,0.141,1.292,0.398,1.854,0.754
							c0.02,0.014,0.033,0.02,0.055,0.037l0.087,0.09l0.173,0.18l0.348,0.381l0.274,0.449c0.083,0.137,0.204,0.361,0.234,0.387
							c0.199,0.27,0.361,0.568,0.508,0.883c0.563,1.26,0.587,2.637,0.146,3.928C43.968,186.688,43.071,187.887,41.759,188.629z"/>
						<path fill="#FFFFFF" d="M35.29,176.51c-1.341,0.689-2.846,0.756-4.197,0.227c-1.352-0.521-2.533-1.643-3.154-3.178
							c-0.623-1.535-0.549-3.164,0.055-4.479c0.602-1.318,1.736-2.32,3.176-2.756c1.448-0.438,2.92-0.254,4.155,0.314
							c1.234,0.576,2.224,1.541,2.743,2.82c0.518,1.281,0.473,2.664-0.01,3.934C37.57,174.658,36.631,175.818,35.29,176.51z"/>
					</g>
					<g>
						<path fill="#FFFFFF" d="M35.29,176.51c-1.341,0.689-2.846,0.756-4.197,0.227c-1.352-0.521-2.533-1.643-3.154-3.178
							c-0.623-1.535-0.549-3.164,0.055-4.479c0.602-1.318,1.736-2.32,3.176-2.756c1.448-0.438,2.92-0.254,4.155,0.314
							c1.234,0.576,2.224,1.541,2.743,2.82c0.518,1.281,0.473,2.664-0.01,3.934C37.57,174.658,36.631,175.818,35.29,176.51z"/>
						<path fill="#FFFFFF" d="M30.427,163.674c-1.455,0.377-2.949,0.109-4.145-0.703c-1.2-0.809-2.111-2.16-2.377-3.793
							c-0.271-1.631,0.16-3.205,1.039-4.354c0.872-1.152,2.2-1.883,3.699-1.994c1.51-0.111,2.904,0.389,3.986,1.217
							c1.078,0.832,1.83,1.994,2.057,3.359c0.224,1.365-0.119,2.705-0.873,3.838C33.052,162.375,31.892,163.295,30.427,163.674z"/>
					</g>
					<g>
						<path fill="#FFFFFF" d="M30.427,163.674c-1.455,0.377-2.949,0.109-4.145-0.703c-1.2-0.809-2.111-2.16-2.377-3.793
							c-0.271-1.631,0.16-3.205,1.039-4.354c0.872-1.152,2.2-1.883,3.699-1.994c1.51-0.111,2.904,0.389,3.986,1.217
							c1.078,0.832,1.83,1.994,2.057,3.359c0.224,1.365-0.119,2.705-0.873,3.838C33.052,162.375,31.892,163.295,30.427,163.674z"/>
						<path fill="#FFFFFF" d="M28.497,150.081c-1.504,0.053-2.902-0.531-3.895-1.582c-0.996-1.047-1.596-2.561-1.504-4.209
							c0.088-1.65,0.845-3.094,1.947-4.025c1.104-0.939,2.554-1.367,4.045-1.152c1.496,0.215,2.754,1.002,3.631,2.041
							c0.875,1.043,1.361,2.34,1.288,3.725c-0.077,1.383-0.698,2.621-1.681,3.566C31.343,149.383,30.009,150.03,28.497,150.081z"/>
					</g>
					<g>
						<path fill="#FFFFFF" d="M28.497,150.081c-1.504,0.053-2.902-0.531-3.895-1.582c-0.996-1.047-1.596-2.561-1.504-4.209
							c0.088-1.65,0.845-3.094,1.947-4.025c1.104-0.939,2.554-1.367,4.045-1.152c1.496,0.215,2.754,1.002,3.631,2.041
							c0.875,1.043,1.361,2.34,1.288,3.725c-0.077,1.383-0.698,2.621-1.681,3.566C31.343,149.383,30.009,150.03,28.497,150.081z"/>
						<path fill="#FFFFFF" d="M29.534,136.393c-1.479-0.273-2.717-1.143-3.459-2.389c-0.748-1.236-1.002-2.848-0.553-4.441
							c0.445-1.594,1.5-2.838,2.781-3.508c1.28-0.678,2.792-0.775,4.197-0.24c1.414,0.537,2.467,1.582,3.097,2.787
							c0.625,1.211,0.817,2.578,0.446,3.91c-0.375,1.33-1.252,2.4-2.413,3.109C32.466,136.325,31.022,136.668,29.534,136.393z"/>
					</g>
					<g>
						<path fill="#FFFFFF" d="M29.534,136.393c-1.479-0.273-2.717-1.143-3.459-2.389c-0.748-1.236-1.002-2.848-0.553-4.441
							c0.445-1.594,1.5-2.838,2.781-3.508c1.28-0.678,2.792-0.775,4.197-0.24c1.414,0.537,2.467,1.582,3.097,2.787
							c0.625,1.211,0.817,2.578,0.446,3.91c-0.375,1.33-1.252,2.4-2.413,3.109C32.466,136.325,31.022,136.668,29.534,136.393z"/>
						<path fill="#FFFFFF" d="M33.534,123.262c-1.383-0.592-2.4-1.715-2.85-3.092c-0.455-1.371-0.348-3,0.443-4.456
							c0.786-1.458,2.088-2.44,3.488-2.808c0.697-0.189,1.426-0.223,2.13-0.107c0.641,0.213,1.35,0.441,2.017,0.801
							c0.665,0.359,1.207,0.845,1.545,1.525c0.4,0.583,0.684,1.221,0.858,1.879c0.339,1.316,0.227,2.695-0.429,3.91
							c-0.659,1.215-1.749,2.063-3.039,2.498C36.407,123.84,34.925,123.858,33.534,123.262z"/>
					</g>
					<g>
						<path fill="#FFFFFF" d="M33.534,123.262c-1.383-0.592-2.4-1.715-2.85-3.092c-0.455-1.371-0.348-3,0.443-4.456
							c0.786-1.458,2.088-2.44,3.488-2.808c0.697-0.189,1.426-0.223,2.13-0.107c0.641,0.213,1.35,0.441,2.017,0.801
							c0.665,0.359,1.207,0.845,1.545,1.525c0.4,0.583,0.684,1.221,0.858,1.879c0.339,1.316,0.227,2.695-0.429,3.91
							c-0.659,1.215-1.749,2.063-3.039,2.498C36.407,123.84,34.925,123.858,33.534,123.262z"/>
						<path fill="#FFFFFF" d="M39.903,111.094c-1.357-0.65-2.32-1.811-2.717-3.207c-0.4-1.391-0.218-3.009,0.627-4.434
							c0.215-0.354,0.457-0.679,0.721-0.973l0.206-0.213l0.106-0.102c0.015,0,0.025,0.008,0.039,0.012
							c0.052,0.016,0.113,0.033,0.186,0.05c0.15,0.035,0.313,0.054,0.516,0.054l0.156-0.003c0.055-0.001,0.107,0.009,0.183-0.072
							c0.141-0.116,0.284-0.226,0.436-0.326c1.214-0.802,2.69-1.063,4.152-0.675c1.454,0.387,2.626,1.319,3.367,2.451
							c0.093,0.142,0.183,0.287,0.263,0.436c0.046,0.051,0.068,0.197,0.092,0.333l0.063,0.418c0.051,0.563,0.195,1.239-0.099,1.792
							c-0.104,0.295-0.224,0.596-0.356,0.903l-0.101,0.229l-0.034,0.12l-0.08,0.237c-0.106,0.318-0.249,0.627-0.428,0.923
							c-0.705,1.188-1.837,1.987-3.142,2.369C42.756,111.794,41.267,111.748,39.903,111.094z"/>
					</g>
					<g>
						<path fill="#FFFFFF" d="M39.903,111.094c-1.357-0.65-2.32-1.811-2.717-3.207c-0.4-1.391-0.218-3.009,0.627-4.434
							c0.215-0.354,0.457-0.679,0.721-0.973l0.206-0.213l0.106-0.102c0.015,0,0.025,0.008,0.039,0.012
							c0.052,0.016,0.113,0.033,0.186,0.05c0.15,0.035,0.313,0.054,0.516,0.054l0.156-0.003c0.055-0.001,0.107,0.009,0.183-0.072
							c0.141-0.116,0.284-0.226,0.436-0.326c1.214-0.802,2.69-1.063,4.152-0.675c1.454,0.387,2.626,1.319,3.367,2.451
							c0.093,0.142,0.183,0.287,0.263,0.436c0.046,0.051,0.068,0.197,0.092,0.333l0.063,0.418c0.051,0.563,0.195,1.239-0.099,1.792
							c-0.104,0.295-0.224,0.596-0.356,0.903l-0.101,0.229l-0.034,0.12l-0.08,0.237c-0.106,0.318-0.249,0.627-0.428,0.923
							c-0.705,1.188-1.837,1.987-3.142,2.369C42.756,111.794,41.267,111.748,39.903,111.094z"/>
						<path fill="#FFFFFF" d="M45.273,98.56c-1.436-0.445-2.566-1.455-3.157-2.774c-0.302-0.66-0.467-1.395-0.478-2.157
							c-0.009-0.382,0.026-0.77,0.101-1.157l0.063-0.292c0.021-0.091-0.016-0.028-0.019-0.047c-0.021,0.002-0.031,0.003-0.032,0.007
							c-0.01,0.046,0.021-0.09,0.047-0.187l0.084-0.293c0.059-0.193,0.131-0.38,0.211-0.562c0.16-0.362,0.343-0.705,0.566-1.016
							c0.438-0.626,0.986-1.142,1.604-1.52c1.237-0.76,2.728-0.964,4.173-0.522c1.44,0.44,2.572,1.415,3.276,2.573
							c0.353,0.581,0.599,1.211,0.725,1.864c0.058,0.326,0.098,0.659,0.093,0.993c-0.002,0.167-0.012,0.335-0.027,0.505
							l-0.032,0.253c-0.014,0.087-0.021,0.136-0.071,0.368c-0.076,0.376-0.153,0.747-0.333,1.087
							c-0.069,0.152-0.174,0.387-0.22,0.465l-0.135,0.213c-0.188,0.278-0.403,0.534-0.635,0.771
							c-0.471,0.471-1.031,0.855-1.646,1.139C48.19,98.833,46.72,99.007,45.273,98.56z"/>
					</g>
					<g>
						<path fill="#FFFFFF" d="M45.273,98.56c-1.436-0.445-2.566-1.455-3.157-2.774c-0.302-0.66-0.467-1.395-0.478-2.157
							c-0.009-0.382,0.026-0.77,0.101-1.157l0.063-0.292c0.021-0.091-0.016-0.028-0.019-0.047c-0.021,0.002-0.031,0.003-0.032,0.007
							c-0.01,0.046,0.021-0.09,0.047-0.187l0.084-0.293c0.059-0.193,0.131-0.38,0.211-0.562c0.16-0.362,0.343-0.705,0.566-1.016
							c0.438-0.626,0.986-1.142,1.604-1.52c1.237-0.76,2.728-0.964,4.173-0.522c1.44,0.44,2.572,1.415,3.276,2.573
							c0.353,0.581,0.599,1.211,0.725,1.864c0.058,0.326,0.098,0.659,0.093,0.993c-0.002,0.167-0.012,0.335-0.027,0.505
							l-0.032,0.253c-0.014,0.087-0.021,0.136-0.071,0.368c-0.076,0.376-0.153,0.747-0.333,1.087
							c-0.069,0.152-0.174,0.387-0.22,0.465l-0.135,0.213c-0.188,0.278-0.403,0.534-0.635,0.771
							c-0.471,0.471-1.031,0.855-1.646,1.139C48.19,98.833,46.72,99.007,45.273,98.56z"/>
						<path fill="#FFFFFF" d="M49.295,85.423c-1.425-0.5-2.505-1.548-3.053-2.893c-0.546-1.338-0.544-2.969,0.146-4.476
							c0.688-1.506,1.92-2.574,3.287-3.037c1.377-0.466,2.876-0.335,4.188,0.415c1.307,0.748,2.195,1.948,2.624,3.233
							c0.433,1.293,0.412,2.676-0.161,3.933c-0.575,1.256-1.608,2.175-2.867,2.695C52.205,85.81,50.716,85.923,49.295,85.423z"/>
					</g>
					<g>
						<path fill="#FFFFFF" d="M49.295,85.423c-1.425-0.5-2.505-1.548-3.053-2.893c-0.546-1.338-0.544-2.969,0.146-4.476
							c0.688-1.506,1.92-2.574,3.287-3.037c1.377-0.466,2.876-0.335,4.188,0.415c1.307,0.748,2.195,1.948,2.624,3.233
							c0.433,1.293,0.412,2.676-0.161,3.933c-0.575,1.256-1.608,2.175-2.867,2.695C52.205,85.81,50.716,85.923,49.295,85.423z"/>
						<path fill="#FFFFFF" d="M55.276,73.07c-1.279-0.803-2.101-2.062-2.338-3.494c-0.242-1.428,0.121-3.014,1.121-4.331
							c1-1.318,2.436-2.086,3.869-2.24c1.443-0.154,2.878,0.3,3.995,1.317c1.113,1.014,1.72,2.379,1.856,3.728
							c0.14,1.358-0.185,2.705-1.021,3.807c-0.837,1.103-2.052,1.771-3.391,2.004C58.03,74.088,56.554,73.87,55.276,73.07z"/>
					</g>
					<g>
						<path fill="#FFFFFF" d="M55.276,73.07c-1.279-0.803-2.101-2.062-2.338-3.494c-0.242-1.428,0.121-3.014,1.121-4.331
							c1-1.318,2.436-2.086,3.869-2.24c1.443-0.154,2.878,0.3,3.995,1.317c1.113,1.014,1.72,2.379,1.856,3.728
							c0.14,1.358-0.185,2.705-1.021,3.807c-0.837,1.103-2.052,1.771-3.391,2.004C58.03,74.088,56.554,73.87,55.276,73.07z"/>
						<path fill="#FFFFFF" d="M63.817,62.323c-1.076-1.061-1.604-2.468-1.527-3.918c0.075-1.441,0.768-2.913,2.027-3.982
							s2.824-1.516,4.262-1.354c1.442,0.16,2.745,0.912,3.615,2.146c0.869,1.231,1.168,2.695,1.012,4.042
							c-0.16,1.351-0.762,2.6-1.818,3.496c-1.057,0.896-2.387,1.291-3.748,1.227C66.285,63.914,64.89,63.381,63.817,62.323z"/>
					</g>
					<g>
						<path fill="#FFFFFF" d="M63.817,62.323c-1.076-1.061-1.604-2.468-1.527-3.918c0.075-1.441,0.768-2.913,2.027-3.982
							s2.824-1.516,4.262-1.354c1.442,0.16,2.745,0.912,3.615,2.146c0.869,1.231,1.168,2.695,1.012,4.042
							c-0.16,1.351-0.762,2.6-1.818,3.496c-1.057,0.896-2.387,1.291-3.748,1.227C66.285,63.914,64.89,63.381,63.817,62.323z"/>
						<path fill="#FFFFFF" d="M74.477,53.674c-0.82-1.269-1.032-2.758-0.643-4.158c0.388-1.391,1.386-2.681,2.853-3.449
							c1.467-0.77,3.094-0.862,4.461-0.389c1.373,0.473,2.479,1.494,3.057,2.89c0.576,1.392,0.543,2.884,0.097,4.163
							c-0.451,1.285-1.312,2.368-2.534,3.01c-1.225,0.642-2.604,0.737-3.918,0.376C76.541,55.76,75.294,54.938,74.477,53.674z"/>
					</g>
					<g>
						<path fill="#FFFFFF" d="M74.477,53.674c-0.82-1.269-1.032-2.758-0.643-4.158c0.388-1.391,1.386-2.681,2.853-3.449
							c1.467-0.77,3.094-0.862,4.461-0.389c1.373,0.473,2.479,1.494,3.057,2.89c0.576,1.392,0.543,2.884,0.097,4.163
							c-0.451,1.285-1.312,2.368-2.534,3.01c-1.225,0.642-2.604,0.737-3.918,0.376C76.541,55.76,75.294,54.938,74.477,53.674z"/>
						<path fill="#FFFFFF" d="M86.769,47.567c-0.52-1.419-0.396-2.918,0.294-4.196c0.686-1.274,1.946-2.308,3.546-2.733
							c0.799-0.213,1.603-0.255,2.358-0.142c0.378,0.056,0.742,0.144,1.091,0.273c0.161,0.067,0.375,0.129,0.479,0.221
							c0.051,0.103,0.111,0.211,0.18,0.323c0.15,0.474,0.985,0.779,1.433,1.308c0.499,0.507,0.896,1.132,1.157,1.838
							c0.264,0.708,0.367,1.431,0.348,2.139c-0.072,0.727,0.016,1.333-0.767,2.153c-0.175,0.163-0.37,0.325-0.585,0.483
							c-0.162,0.148-0.225,0.268-0.352,0.395c-0.225,0.245-0.469,0.477-0.732,0.678c-0.528,0.402-1.129,0.709-1.799,0.888
							c-1.335,0.355-2.701,0.14-3.902-0.5C88.321,50.059,87.288,48.981,86.769,47.567z"/>
					</g>
					<g>
						<path fill="#FFFFFF" d="M86.769,47.567c-0.52-1.419-0.396-2.918,0.294-4.196c0.686-1.274,1.946-2.308,3.546-2.733
							c0.799-0.213,1.603-0.255,2.358-0.142c0.378,0.056,0.742,0.144,1.091,0.273c0.161,0.067,0.375,0.129,0.479,0.221
							c0.051,0.103,0.111,0.211,0.18,0.323c0.15,0.474,0.985,0.779,1.433,1.308c0.499,0.507,0.896,1.132,1.157,1.838
							c0.264,0.708,0.367,1.431,0.348,2.139c-0.072,0.727,0.016,1.333-0.767,2.153c-0.175,0.163-0.37,0.325-0.585,0.483
							c-0.162,0.148-0.225,0.268-0.352,0.395c-0.225,0.245-0.469,0.477-0.732,0.678c-0.528,0.402-1.129,0.709-1.799,0.888
							c-1.335,0.355-2.701,0.14-3.902-0.5C88.321,50.059,87.288,48.981,86.769,47.567z"/>
						<path fill="#FFFFFF" d="M99.909,43.561c-0.463-1.431-0.288-2.938,0.452-4.18c0.366-0.629,0.874-1.178,1.489-1.632
							c0.309-0.225,0.646-0.417,1.006-0.583c0.315-0.158,0.92-0.332,0.758-0.295c0.012-0.001,0.033,0.034,0.078,0.088l0.041,0.046
							c0.012,0.02,0.017,0.046,0.141-0.001c0.186-0.055,0.369-0.104,0.559-0.137c0.756-0.134,1.501-0.131,2.211,0.037
							c1.414,0.317,2.626,1.22,3.35,2.542c0.725,1.325,0.85,2.805,0.546,4.13c-0.157,0.655-0.415,1.292-0.786,1.838
							c-0.094,0.135-0.189,0.274-0.294,0.403c-0.021,0.046-0.163,0.166-0.3,0.28l-0.408,0.333c-0.279,0.217-0.563,0.45-0.871,0.645
							c-0.348,0.099-0.705,0.189-1.07,0.273c-0.901,0.206-1.021,0.191-1.4,0.213c-0.334,0.01-0.668-0.021-0.996-0.077
							c-0.653-0.107-1.291-0.354-1.877-0.69C101.362,46.103,100.374,45.001,99.909,43.561z"/>
					</g>
					<g>
						<path fill="#FFFFFF" d="M99.909,43.561c-0.463-1.431-0.288-2.938,0.452-4.18c0.366-0.629,0.874-1.178,1.489-1.632
							c0.309-0.225,0.646-0.417,1.006-0.583c0.315-0.158,0.92-0.332,0.758-0.295c0.012-0.001,0.033,0.034,0.078,0.088l0.041,0.046
							c0.012,0.02,0.017,0.046,0.141-0.001c0.186-0.055,0.369-0.104,0.559-0.137c0.756-0.134,1.501-0.131,2.211,0.037
							c1.414,0.317,2.626,1.22,3.35,2.542c0.725,1.325,0.85,2.805,0.546,4.13c-0.157,0.655-0.415,1.292-0.786,1.838
							c-0.094,0.135-0.189,0.274-0.294,0.403c-0.021,0.046-0.163,0.166-0.3,0.28l-0.408,0.333c-0.279,0.217-0.563,0.45-0.871,0.645
							c-0.348,0.099-0.705,0.189-1.07,0.273c-0.901,0.206-1.021,0.191-1.4,0.213c-0.334,0.01-0.668-0.021-0.996-0.077
							c-0.653-0.107-1.291-0.354-1.877-0.69C101.362,46.103,100.374,45.001,99.909,43.561z"/>
						<path fill="#FFFFFF" d="M112.436,38.174c-0.528-1.071-0.669-2.241-0.427-3.351c0.121-0.551,0.336-1.089,0.637-1.593
							c0.15-0.25,0.325-0.486,0.52-0.714l0.148-0.168c0.031-0.047,0.146-0.128,0.107-0.142c-0.018-0.053-0.039-0.1-0.06-0.141
							c-0.019-0.045-0.038-0.084-0.058-0.116c0.084-0.098,0.224-0.225,0.341-0.331c0.245-0.222,0.521-0.416,0.812-0.598
							c1.409-0.87,3.029-1.069,4.424-0.694c1.402,0.377,2.576,1.323,3.246,2.674c0.672,1.351,0.739,2.84,0.382,4.147
							c-0.36,1.315-1.146,2.451-2.322,3.176c-0.243,0.152-0.499,0.273-0.755,0.381c-0.135,0.057-0.244,0.091-0.406,0.15
							c-0.264,0.125-0.523,0.242-0.779,0.349c-0.268,0.066-0.531,0.125-0.788,0.174c-0.158,0.039-0.161,0.008-0.245,0.011
							l-0.197-0.018c-0.262-0.029-0.525-0.081-0.783-0.146c-0.514-0.129-1.017-0.335-1.491-0.612
							C113.795,40.067,112.966,39.248,112.436,38.174z"/>
					</g>
					<g>
						<path fill="#FFFFFF" d="M112.436,38.174c-0.528-1.071-0.669-2.241-0.427-3.351c0.121-0.551,0.336-1.089,0.637-1.593
							c0.15-0.25,0.325-0.486,0.52-0.714l0.148-0.168c0.031-0.047,0.146-0.128,0.107-0.142c-0.018-0.053-0.039-0.1-0.06-0.141
							c-0.019-0.045-0.038-0.084-0.058-0.116c0.084-0.098,0.224-0.225,0.341-0.331c0.245-0.222,0.521-0.416,0.812-0.598
							c1.409-0.87,3.029-1.069,4.424-0.694c1.402,0.377,2.576,1.323,3.246,2.674c0.672,1.351,0.739,2.84,0.382,4.147
							c-0.36,1.315-1.146,2.451-2.322,3.176c-0.243,0.152-0.499,0.273-0.755,0.381c-0.135,0.057-0.244,0.091-0.406,0.15
							c-0.264,0.125-0.523,0.242-0.779,0.349c-0.268,0.066-0.531,0.125-0.788,0.174c-0.158,0.039-0.161,0.008-0.245,0.011
							l-0.197-0.018c-0.262-0.029-0.525-0.081-0.783-0.146c-0.514-0.129-1.017-0.335-1.491-0.612
							C113.795,40.067,112.966,39.248,112.436,38.174z"/>
						<path fill="#FFFFFF" d="M124.616,31.826c-0.613-1.374-0.596-2.884,0.007-4.203c0.597-1.319,1.782-2.439,3.35-2.972
							c1.567-0.536,3.19-0.371,4.468,0.306c1.281,0.672,2.22,1.862,2.574,3.324c0.357,1.471,0.093,2.929-0.545,4.131
							c-0.644,1.2-1.662,2.134-2.969,2.581c-1.309,0.445-2.687,0.326-3.928-0.228C126.335,34.204,125.232,33.206,124.616,31.826z"/>
					</g>
					<g>
						<path fill="#FFFFFF" d="M124.616,31.826c-0.613-1.374-0.596-2.884,0.007-4.203c0.597-1.319,1.782-2.439,3.35-2.972
							c1.567-0.536,3.19-0.371,4.468,0.306c1.281,0.672,2.22,1.862,2.574,3.324c0.357,1.471,0.093,2.929-0.545,4.131
							c-0.644,1.2-1.662,2.134-2.969,2.581c-1.309,0.445-2.687,0.326-3.928-0.228C126.335,34.204,125.232,33.206,124.616,31.826z"/>
						<path fill="#FFFFFF" d="M137.704,27.685c-0.296-1.475,0.052-2.95,0.93-4.1c0.871-1.153,2.271-1.987,3.916-2.165
							c1.643-0.181,3.188,0.335,4.285,1.274c1.104,0.934,1.761,2.301,1.791,3.803c0.029,1.514-0.545,2.879-1.43,3.915
							c-0.891,1.031-2.092,1.719-3.469,1.871c-1.377,0.148-2.696-0.267-3.787-1.083C138.855,30.379,138,29.168,137.704,27.685z"/>
					</g>
					<g>
						<path fill="#FFFFFF" d="M137.704,27.685c-0.296-1.475,0.052-2.95,0.93-4.1c0.871-1.153,2.271-1.987,3.916-2.165
							c1.643-0.181,3.188,0.335,4.285,1.274c1.104,0.934,1.761,2.301,1.791,3.803c0.029,1.514-0.545,2.879-1.43,3.915
							c-0.891,1.031-2.092,1.719-3.469,1.871c-1.377,0.148-2.696-0.267-3.787-1.083C138.855,30.379,138,29.168,137.704,27.685z"/>
						<path fill="#FFFFFF" d="M151.377,26.499c0.029-1.503,0.688-2.87,1.791-3.803c1.098-0.94,2.643-1.455,4.287-1.274
							c1.643,0.177,3.043,1.012,3.914,2.164c0.877,1.152,1.227,2.625,0.93,4.101c-0.295,1.482-1.152,2.695-2.236,3.514
							c-1.092,0.817-2.41,1.232-3.787,1.084c-1.377-0.152-2.578-0.841-3.469-1.871C151.922,29.377,151.348,28.012,151.377,26.499z"
							/>
					</g>
					<g>
						<path fill="#FFFFFF" d="M151.377,26.499c0.029-1.503,0.688-2.87,1.791-3.803c1.098-0.94,2.643-1.455,4.287-1.274
							c1.643,0.177,3.043,1.012,3.914,2.164c0.877,1.152,1.227,2.625,0.93,4.101c-0.295,1.482-1.152,2.695-2.236,3.514
							c-1.092,0.817-2.41,1.232-3.787,1.084c-1.377-0.152-2.578-0.841-3.469-1.871C151.922,29.377,151.348,28.012,151.377,26.499z"
							/>
						<path fill="#FFFFFF" d="M164.988,28.281c0.355-1.462,1.293-2.651,2.576-3.323c1.275-0.678,2.9-0.843,4.467-0.306
							c1.566,0.533,2.752,1.656,3.35,2.973c0.604,1.314,0.617,2.832,0.004,4.205c-0.617,1.382-1.717,2.373-2.955,2.937
							c-1.242,0.556-2.619,0.672-3.928,0.227c-1.307-0.448-2.326-1.381-2.969-2.58C164.896,31.21,164.631,29.751,164.988,28.281z"/>
					</g>
					<g>
						<path fill="#FFFFFF" d="M164.988,28.281c0.355-1.462,1.293-2.651,2.576-3.323c1.275-0.678,2.9-0.843,4.467-0.306
							c1.566,0.533,2.752,1.656,3.35,2.973c0.604,1.314,0.617,2.832,0.004,4.205c-0.617,1.382-1.717,2.373-2.955,2.937
							c-1.242,0.556-2.619,0.672-3.928,0.227c-1.307-0.448-2.326-1.381-2.969-2.58C164.896,31.21,164.631,29.751,164.988,28.281z"/>
						<path fill="#FFFFFF" d="M177.877,33.003c0.668-1.349,1.846-2.3,3.246-2.673c1.395-0.377,3.016-0.179,4.426,0.691
							c0.336,0.212,0.648,0.445,0.928,0.705c0.141,0.13,0.271,0.266,0.396,0.406c0.057,0.096-0.027,0.109-0.033,0.183
							c-0.02,0.046-0.041,0.098-0.059,0.155c-0.029,0.019,0.023,0.076,0.074,0.132l0.133,0.167c0.174,0.225,0.328,0.458,0.463,0.702
							c0.266,0.492,0.451,1.012,0.551,1.544c0.199,1.067,0.047,2.186-0.461,3.21c-0.51,1.028-1.293,1.82-2.189,2.367
							c-0.449,0.275-0.928,0.486-1.416,0.625c-0.248,0.072-0.498,0.13-0.748,0.167L183,41.41c-0.059,0.009-0.115,0.018-0.256-0.013
							c-0.24-0.04-0.486-0.087-0.736-0.143l-0.854-0.35c-0.154-0.042-0.307-0.091-0.457-0.148c-0.301-0.114-0.598-0.253-0.881-0.431
							c-1.174-0.726-1.961-1.861-2.322-3.174C177.139,35.84,177.205,34.357,177.877,33.003z"/>
					</g>
					<g>
						<path fill="#FFFFFF" d="M177.877,33.003c0.668-1.349,1.846-2.3,3.246-2.673c1.395-0.377,3.016-0.179,4.426,0.691
							c0.336,0.212,0.648,0.445,0.928,0.705c0.141,0.13,0.271,0.266,0.396,0.406c0.057,0.096-0.027,0.109-0.033,0.183
							c-0.02,0.046-0.041,0.098-0.059,0.155c-0.029,0.019,0.023,0.076,0.074,0.132l0.133,0.167c0.174,0.225,0.328,0.458,0.463,0.702
							c0.266,0.492,0.451,1.012,0.551,1.544c0.199,1.067,0.047,2.186-0.461,3.21c-0.51,1.028-1.293,1.82-2.189,2.367
							c-0.449,0.275-0.928,0.486-1.416,0.625c-0.248,0.072-0.498,0.13-0.748,0.167L183,41.41c-0.059,0.009-0.115,0.018-0.256-0.013
							c-0.24-0.04-0.486-0.087-0.736-0.143l-0.854-0.35c-0.154-0.042-0.307-0.091-0.457-0.148c-0.301-0.114-0.598-0.253-0.881-0.431
							c-1.174-0.726-1.961-1.861-2.322-3.174C177.139,35.84,177.205,34.357,177.877,33.003z"/>
						<path fill="#FFFFFF" d="M189.982,39.5c0.727-1.324,1.938-2.219,3.355-2.538c0.705-0.16,1.457-0.17,2.209-0.031
							c0.08,0.01,0.215,0.057,0.25,0.043l0.061-0.063l0.086-0.105c0.053-0.059,0.047-0.102,0.088-0.092
							c1.613,0.372,2.908,1.352,3.637,2.606c0.74,1.241,0.912,2.751,0.445,4.18c-0.467,1.44-1.457,2.538-2.631,3.229
							c-1.178,0.676-2.539,0.948-3.887,0.636c-0.334-0.075-0.717-0.17-1.059-0.266l-0.518-0.151l-0.252-0.082l-0.211-0.166
							c-0.281-0.221-0.549-0.445-0.805-0.67l-0.371-0.337c-0.107-0.104-0.111-0.146-0.17-0.225c-0.367-0.552-0.629-1.18-0.781-1.842
							C189.127,42.306,189.256,40.821,189.982,39.5z"/>
					</g>
					<g>
						<path fill="#FFFFFF" d="M189.982,39.5c0.727-1.324,1.938-2.219,3.355-2.538c0.705-0.16,1.457-0.17,2.209-0.031
							c0.08,0.01,0.215,0.057,0.25,0.043l0.061-0.063l0.086-0.105c0.053-0.059,0.047-0.102,0.088-0.092
							c1.613,0.372,2.908,1.352,3.637,2.606c0.74,1.241,0.912,2.751,0.445,4.18c-0.467,1.44-1.457,2.538-2.631,3.229
							c-1.178,0.676-2.539,0.948-3.887,0.636c-0.334-0.075-0.717-0.17-1.059-0.266l-0.518-0.151l-0.252-0.082l-0.211-0.166
							c-0.281-0.221-0.549-0.445-0.805-0.67l-0.371-0.337c-0.107-0.104-0.111-0.146-0.17-0.225c-0.367-0.552-0.629-1.18-0.781-1.842
							C189.127,42.306,189.256,40.821,189.982,39.5z"/>
						<path fill="#FFFFFF" d="M202.715,44.406c0.264-0.707,0.66-1.327,1.162-1.838c0.25-0.256,0.525-0.479,0.824-0.674
							c0.15-0.097,0.305-0.187,0.465-0.269l0.244-0.117c0.051-0.049,0.082-0.105,0.119-0.157c0.074-0.105,0.133-0.204,0.193-0.307
							l0.08-0.148c0.023-0.049,0.029-0.099,0.143-0.125c0.35-0.126,0.715-0.224,1.094-0.275c0.754-0.111,1.557-0.07,2.357,0.141
							c1.6,0.425,2.859,1.458,3.545,2.735c0.691,1.276,0.814,2.776,0.295,4.193s-1.553,2.493-2.748,3.133
							c-1.199,0.636-2.566,0.854-3.902,0.498c-0.668-0.177-1.271-0.483-1.799-0.887c-0.262-0.206-0.51-0.428-0.732-0.678
							c-0.031-0.057-0.164-0.137-0.279-0.215l-0.326-0.235c-0.211-0.141-0.381-0.374-0.545-0.559
							c-0.076-0.097-0.158-0.198-0.217-0.29l-0.078-0.244c-0.049-0.164-0.092-0.332-0.127-0.501
							c-0.068-0.339-0.109-0.691-0.117-1.043C202.344,45.839,202.451,45.113,202.715,44.406z"/>
					</g>
					<g>
						<path fill="#FFFFFF" d="M202.715,44.406c0.264-0.707,0.66-1.327,1.162-1.838c0.25-0.256,0.525-0.479,0.824-0.674
							c0.15-0.097,0.305-0.187,0.465-0.269l0.244-0.117c0.051-0.049,0.082-0.105,0.119-0.157c0.074-0.105,0.133-0.204,0.193-0.307
							l0.08-0.148c0.023-0.049,0.029-0.099,0.143-0.125c0.35-0.126,0.715-0.224,1.094-0.275c0.754-0.111,1.557-0.07,2.357,0.141
							c1.6,0.425,2.859,1.458,3.545,2.735c0.691,1.276,0.814,2.776,0.295,4.193s-1.553,2.493-2.748,3.133
							c-1.199,0.636-2.566,0.854-3.902,0.498c-0.668-0.177-1.271-0.483-1.799-0.887c-0.262-0.206-0.51-0.428-0.732-0.678
							c-0.031-0.057-0.164-0.137-0.279-0.215l-0.326-0.235c-0.211-0.141-0.381-0.374-0.545-0.559
							c-0.076-0.097-0.158-0.198-0.217-0.29l-0.078-0.244c-0.049-0.164-0.092-0.332-0.127-0.501
							c-0.068-0.339-0.109-0.691-0.117-1.043C202.344,45.839,202.451,45.113,202.715,44.406z"/>
						<path fill="#FFFFFF" d="M215.801,48.567c0.578-1.396,1.684-2.418,3.057-2.892c1.365-0.47,2.994-0.382,4.461,0.389
							c1.467,0.77,2.467,2.057,2.854,3.45c0.391,1.399,0.178,2.888-0.643,4.157c-0.818,1.265-2.064,2.086-3.371,2.445
							c-1.314,0.358-2.695,0.265-3.918-0.377c-1.223-0.643-2.084-1.723-2.535-3.01C215.258,51.451,215.225,49.959,215.801,48.567z"
							/>
					</g>
					<g>
						<path fill="#FFFFFF" d="M215.801,48.567c0.578-1.396,1.684-2.418,3.057-2.892c1.365-0.47,2.994-0.382,4.461,0.389
							c1.467,0.77,2.467,2.057,2.854,3.45c0.391,1.399,0.178,2.888-0.643,4.157c-0.818,1.265-2.064,2.086-3.371,2.445
							c-1.314,0.358-2.695,0.265-3.918-0.377c-1.223-0.643-2.084-1.723-2.535-3.01C215.258,51.451,215.225,49.959,215.801,48.567z"
							/>
						<path fill="#FFFFFF" d="M227.811,55.213c0.871-1.234,2.174-1.986,3.617-2.146c1.438-0.161,3.002,0.285,4.262,1.355
							s1.951,2.543,2.025,3.985c0.076,1.45-0.455,2.857-1.531,3.917c-1.072,1.057-2.469,1.588-3.822,1.653
							c-1.363,0.064-2.691-0.332-3.746-1.228c-1.057-0.896-1.658-2.144-1.816-3.497C226.645,57.907,226.941,56.444,227.811,55.213z"
							/>
					</g>
					<g>
						<path fill="#FFFFFF" d="M227.811,55.213c0.871-1.234,2.174-1.986,3.617-2.146c1.438-0.161,3.002,0.285,4.262,1.355
							s1.951,2.543,2.025,3.985c0.076,1.45-0.455,2.857-1.531,3.917c-1.072,1.057-2.469,1.588-3.822,1.653
							c-1.363,0.064-2.691-0.332-3.746-1.228c-1.057-0.896-1.658-2.144-1.816-3.497C226.645,57.907,226.941,56.444,227.811,55.213z"
							/>
						<path fill="#FFFFFF" d="M238.076,64.325c1.119-1.017,2.553-1.47,3.996-1.316c1.434,0.154,2.869,0.923,3.869,2.241
							c0.998,1.317,1.363,2.902,1.119,4.331c-0.236,1.432-1.057,2.691-2.338,3.494c-1.275,0.8-2.754,1.018-4.09,0.791
							c-1.338-0.235-2.557-0.901-3.393-2.005c-0.836-1.103-1.16-2.449-1.021-3.807C236.355,66.704,236.963,65.339,238.076,64.325z"
							/>
					</g>
					<g>
						<path fill="#FFFFFF" d="M238.076,64.325c1.119-1.017,2.553-1.47,3.996-1.316c1.434,0.154,2.869,0.923,3.869,2.241
							c0.998,1.317,1.363,2.902,1.119,4.331c-0.236,1.432-1.057,2.691-2.338,3.494c-1.275,0.8-2.754,1.018-4.09,0.791
							c-1.338-0.235-2.557-0.901-3.393-2.005c-0.836-1.103-1.16-2.449-1.021-3.807C236.355,66.704,236.963,65.339,238.076,64.325z"
							/>
						<path fill="#FFFFFF" d="M246.137,75.436c1.311-0.749,2.813-0.881,4.188-0.414c1.365,0.463,2.602,1.53,3.287,3.037
							c0.689,1.506,0.695,3.135,0.145,4.476c-0.547,1.345-1.625,2.393-3.051,2.894c-1.42,0.5-2.91,0.385-4.164-0.131
							c-1.254-0.521-2.293-1.438-2.865-2.695c-0.574-1.257-0.596-2.639-0.164-3.933C243.941,77.384,244.828,76.185,246.137,75.436z"
							/>
					</g>
					<g>
						<path fill="#FFFFFF" d="M246.137,75.436c1.311-0.749,2.813-0.881,4.188-0.414c1.365,0.463,2.602,1.53,3.287,3.037
							c0.689,1.506,0.695,3.135,0.145,4.476c-0.547,1.345-1.625,2.393-3.051,2.894c-1.42,0.5-2.91,0.385-4.164-0.131
							c-1.254-0.521-2.293-1.438-2.865-2.695c-0.574-1.257-0.596-2.639-0.164-3.933C243.941,77.384,244.828,76.185,246.137,75.436z"
							/>
						<path fill="#FFFFFF" d="M251.564,88.044c1.443-0.442,2.934-0.238,4.174,0.521c1.23,0.755,2.197,2.069,2.535,3.691l0.029,0.152
							l0.012,0.072l-0.002,0c-0.006-0.001-0.014-0.001-0.023-0.001c-0.018,0.005-0.049-0.002-0.078,0.021
							c0.068,0.389,0.109,0.775,0.1,1.158c-0.018,0.764-0.178,1.495-0.482,2.156c-0.592,1.319-1.727,2.328-3.162,2.77
							c-1.449,0.444-2.918,0.268-4.158-0.296c-0.613-0.286-1.178-0.669-1.643-1.142c-0.23-0.237-0.451-0.492-0.635-0.772
							c-0.145-0.314-0.35-0.649-0.443-1.007l-0.211-0.879c-0.279-1.352,0.006-2.704,0.713-3.87
							C248.992,89.458,250.123,88.484,251.564,88.044z"/>
					</g>
					<g>
						<path fill="#FFFFFF" d="M251.564,88.044c1.443-0.442,2.934-0.238,4.174,0.521c1.23,0.755,2.197,2.069,2.535,3.691l0.029,0.152
							l0.012,0.072l-0.002,0c-0.006-0.001-0.014-0.001-0.023-0.001c-0.018,0.005-0.049-0.002-0.078,0.021
							c0.068,0.389,0.109,0.775,0.1,1.158c-0.018,0.764-0.178,1.495-0.482,2.156c-0.592,1.319-1.727,2.328-3.162,2.77
							c-1.449,0.444-2.918,0.268-4.158-0.296c-0.613-0.286-1.178-0.669-1.643-1.142c-0.23-0.237-0.451-0.492-0.635-0.772
							c-0.145-0.314-0.35-0.649-0.443-1.007l-0.211-0.879c-0.279-1.352,0.006-2.704,0.713-3.87
							C248.992,89.458,250.123,88.484,251.564,88.044z"/>
						<path fill="#FFFFFF" d="M255.422,101.229c0.975-0.255,1.953-0.227,2.857,0.063c0.451,0.144,0.893,0.352,1.291,0.619
							c0.211,0.194,0.355,0.133,0.506,0.148c0.146,0,0.279-0.008,0.396-0.021c0.129-0.02,0.238-0.044,0.332-0.07
							c0.053-0.006,0.076-0.045,0.137-0.022c0.1,0.083,0.197,0.169,0.291,0.259c0.373,0.363,0.707,0.785,0.992,1.256
							c0.838,1.428,1.01,3.047,0.607,4.434c-0.404,1.396-1.367,2.551-2.729,3.197c-1.363,0.648-2.857,0.693-4.156,0.311
							c-1.307-0.386-2.432-1.192-3.133-2.387c-0.238-0.396-0.412-0.813-0.527-1.245c-0.029-0.106-0.057-0.214-0.078-0.323
							l-0.223-0.586c-0.143-0.397-0.26-0.779-0.35-1.143c0.027-0.41,0.074-0.8,0.139-1.162c0.068-0.347,0.133-0.753,0.273-0.882
							c0.252-0.38,0.543-0.731,0.883-1.05C253.607,101.985,254.451,101.484,255.422,101.229z"/>
					</g>
					<g>
						<path fill="#FFFFFF" d="M255.422,101.229c0.975-0.255,1.953-0.227,2.857,0.063c0.451,0.144,0.893,0.352,1.291,0.619
							c0.211,0.194,0.355,0.133,0.506,0.148c0.146,0,0.279-0.008,0.396-0.021c0.129-0.02,0.238-0.044,0.332-0.07
							c0.053-0.006,0.076-0.045,0.137-0.022c0.1,0.083,0.197,0.169,0.291,0.259c0.373,0.363,0.707,0.785,0.992,1.256
							c0.838,1.428,1.01,3.047,0.607,4.434c-0.404,1.396-1.367,2.551-2.729,3.197c-1.363,0.648-2.857,0.693-4.156,0.311
							c-1.307-0.386-2.432-1.192-3.133-2.387c-0.238-0.396-0.412-0.813-0.527-1.245c-0.029-0.106-0.057-0.214-0.078-0.323
							l-0.223-0.586c-0.143-0.397-0.26-0.779-0.35-1.143c0.027-0.41,0.074-0.8,0.139-1.162c0.068-0.347,0.133-0.753,0.273-0.882
							c0.252-0.38,0.543-0.731,0.883-1.05C253.607,101.985,254.451,101.484,255.422,101.229z"/>
						<path fill="#FFFFFF" d="M261.24,113.599c0.666-0.36,1.373-0.591,2.016-0.802c0.705-0.115,1.434-0.082,2.129,0.106
							c1.4,0.368,2.703,1.351,3.49,2.809c0.791,1.456,0.898,3.085,0.443,4.457c-0.449,1.376-1.467,2.499-2.85,3.091
							c-1.391,0.597-2.873,0.579-4.164,0.15c-1.291-0.435-2.379-1.283-3.037-2.498s-0.77-2.592-0.43-3.908
							c0.174-0.66,0.457-1.297,0.857-1.881C260.035,114.446,260.574,113.958,261.24,113.599z"/>
					</g>
					<g>
						<path fill="#FFFFFF" d="M261.24,113.599c0.666-0.36,1.373-0.591,2.016-0.802c0.705-0.115,1.434-0.082,2.129,0.106
							c1.4,0.368,2.703,1.351,3.49,2.809c0.791,1.456,0.898,3.085,0.443,4.457c-0.449,1.376-1.467,2.499-2.85,3.091
							c-1.391,0.597-2.873,0.579-4.164,0.15c-1.291-0.435-2.379-1.283-3.037-2.498s-0.77-2.592-0.43-3.908
							c0.174-0.66,0.457-1.297,0.857-1.881C260.035,114.446,260.574,113.958,261.24,113.599z"/>
						<path fill="#FFFFFF" d="M267.502,125.813c1.404-0.535,2.916-0.436,4.197,0.24c1.281,0.67,2.336,1.914,2.781,3.51
							c0.449,1.594,0.195,3.205-0.553,4.441c-0.744,1.244-1.982,2.113-3.461,2.387c-1.488,0.275-2.932-0.068-4.094-0.77
							c-1.162-0.711-2.039-1.779-2.414-3.111c-0.371-1.33-0.178-2.699,0.447-3.91C265.035,127.397,266.088,126.352,267.502,125.813z
							"/>
					</g>
					<g>
						<path fill="#FFFFFF" d="M267.502,125.813c1.404-0.535,2.916-0.436,4.197,0.24c1.281,0.67,2.336,1.914,2.781,3.51
							c0.449,1.594,0.195,3.205-0.553,4.441c-0.744,1.244-1.982,2.113-3.461,2.387c-1.488,0.275-2.932-0.068-4.094-0.77
							c-1.162-0.711-2.039-1.779-2.414-3.111c-0.371-1.33-0.178-2.699,0.447-3.91C265.035,127.397,266.088,126.352,267.502,125.813z
							"/>
						<path fill="#FFFFFF" d="M270.912,139.11c1.49-0.213,2.941,0.215,4.043,1.152c1.102,0.934,1.859,2.375,1.947,4.025
							c0.092,1.65-0.508,3.164-1.504,4.209c-0.992,1.051-2.391,1.635-3.893,1.584c-1.514-0.051-2.846-0.697-3.832-1.639
							c-0.984-0.943-1.604-2.184-1.682-3.566c-0.074-1.385,0.412-2.68,1.289-3.725C268.158,140.112,269.416,139.325,270.912,139.11z
							"/>
					</g>
					<g>
						<path fill="#FFFFFF" d="M270.912,139.11c1.49-0.213,2.941,0.215,4.043,1.152c1.102,0.934,1.859,2.375,1.947,4.025
							c0.092,1.65-0.508,3.164-1.504,4.209c-0.992,1.051-2.391,1.635-3.893,1.584c-1.514-0.051-2.846-0.697-3.832-1.639
							c-0.984-0.943-1.604-2.184-1.682-3.566c-0.074-1.385,0.412-2.68,1.289-3.725C268.158,140.112,269.416,139.325,270.912,139.11z
							"/>
						<path fill="#FFFFFF" d="M271.357,152.83c1.5,0.109,2.826,0.84,3.701,1.994c0.879,1.146,1.307,2.721,1.037,4.352
							c-0.266,1.633-1.178,2.986-2.375,3.793c-1.199,0.814-2.689,1.08-4.146,0.701c-1.463-0.377-2.627-1.297-3.385-2.426
							c-0.756-1.133-1.1-2.473-0.875-3.838c0.227-1.367,0.98-2.529,2.057-3.361C268.451,153.217,269.85,152.717,271.357,152.83z"/>
					</g>
					<g>
						<path fill="#FFFFFF" d="M271.357,152.83c1.5,0.109,2.826,0.84,3.701,1.994c0.879,1.146,1.307,2.721,1.037,4.352
							c-0.266,1.633-1.178,2.986-2.375,3.793c-1.199,0.814-2.689,1.08-4.146,0.701c-1.463-0.377-2.627-1.297-3.385-2.426
							c-0.756-1.133-1.1-2.473-0.875-3.838c0.227-1.367,0.98-2.529,2.057-3.361C268.451,153.217,269.85,152.717,271.357,152.83z"/>
						<path fill="#FFFFFF" d="M268.832,166.322c1.439,0.436,2.574,1.439,3.176,2.758c0.605,1.311,0.68,2.941,0.057,4.477
							c-0.619,1.535-1.807,2.656-3.156,3.178c-1.346,0.531-2.861,0.461-4.197-0.227c-1.346-0.693-2.275-1.848-2.768-3.117
							c-0.484-1.27-0.525-2.65-0.008-3.932c0.52-1.279,1.508-2.244,2.742-2.822C265.912,166.068,267.383,165.885,268.832,166.322z"
							/>
					</g>
					<g>
						<path fill="#FFFFFF" d="M268.832,166.322c1.439,0.436,2.574,1.439,3.176,2.758c0.605,1.311,0.68,2.941,0.057,4.477
							c-0.619,1.535-1.807,2.656-3.156,3.178c-1.346,0.531-2.861,0.461-4.197-0.227c-1.346-0.693-2.275-1.848-2.768-3.117
							c-0.484-1.27-0.525-2.65-0.008-3.932c0.52-1.279,1.508-2.244,2.742-2.822C265.912,166.068,267.383,165.885,268.832,166.322z"
							/>
						<path fill="#FFFFFF" d="M263.398,178.93c1.107,0.629,1.912,1.602,2.309,2.744c0.201,0.572,0.303,1.186,0.293,1.813
							c-0.004,0.314-0.033,0.633-0.096,0.947c-0.027,0.156-0.068,0.318-0.107,0.471c0.039,0.029,0.074,0.053,0.107,0.072
							c0.191-0.158-0.059,0.559-0.246,0.98c-0.688,1.508-1.92,2.576-3.285,3.045c-1.377,0.469-2.871,0.344-4.186-0.402
							c-1.309-0.744-2.205-1.945-2.633-3.227c-0.438-1.295-0.42-2.674,0.152-3.932c0.193-0.439,0.311-0.559,0.855-1.518
							c0.193-0.229,0.389-0.451,0.584-0.66c0.117-0.09,0.23-0.162,0.352-0.238c0.242-0.145,0.49-0.277,0.75-0.387
							c0.523-0.217,1.08-0.361,1.658-0.424C261.064,178.098,262.289,178.297,263.398,178.93z"/>
					</g>
					<g>
						<path fill="#FFFFFF" d="M263.398,178.93c1.107,0.629,1.912,1.602,2.309,2.744c0.201,0.572,0.303,1.186,0.293,1.813
							c-0.004,0.314-0.033,0.633-0.096,0.947c-0.027,0.156-0.068,0.318-0.107,0.471c0.039,0.029,0.074,0.053,0.107,0.072
							c0.191-0.158-0.059,0.559-0.246,0.98c-0.688,1.508-1.92,2.576-3.285,3.045c-1.377,0.469-2.871,0.344-4.186-0.402
							c-1.309-0.744-2.205-1.945-2.633-3.227c-0.438-1.295-0.42-2.674,0.152-3.932c0.193-0.439,0.311-0.559,0.855-1.518
							c0.193-0.229,0.389-0.451,0.584-0.66c0.117-0.09,0.23-0.162,0.352-0.238c0.242-0.145,0.49-0.277,0.75-0.387
							c0.523-0.217,1.08-0.361,1.658-0.424C261.064,178.098,262.289,178.297,263.398,178.93z"/>
						<path fill="#FFFFFF" d="M256.777,190.963c0.643,0.395,1.143,0.949,1.629,1.402c0.473,0.465,0.91,0.871,1.375,1.178
							c0.109,0.074,0.215,0.139,0.316,0.199c0.092,0.102,0.15,0.32,0.215,0.48c0.117,0.35,0.201,0.717,0.25,1.094
							c0.1,0.758,0.037,1.559-0.188,2.354c-0.449,1.594-1.521,2.826-2.799,3.49c-1.293,0.666-2.791,0.762-4.201,0.215
							c-1.402-0.543-2.465-1.6-3.078-2.805c-0.625-1.217-0.799-2.584-0.424-3.916c0.188-0.668,0.512-1.262,0.924-1.783
							c0.205-0.262,0.439-0.5,0.695-0.719c0.129-0.125,0.248-0.184,0.398-0.348c0.16-0.205,0.324-0.395,0.488-0.561
							c0.164-0.17,0.33-0.318,0.498-0.445c0.082-0.066,0.166-0.125,0.25-0.18c0.104-0.047,0.219-0.084,0.324-0.119
							c0.434-0.137,0.844-0.205,1.232-0.207C255.471,190.275,256.135,190.568,256.777,190.963z"/>
					</g>
					<g>
						<path fill="#FFFFFF" d="M256.777,190.963c0.643,0.395,1.143,0.949,1.629,1.402c0.473,0.465,0.91,0.871,1.375,1.178
							c0.109,0.074,0.215,0.139,0.316,0.199c0.092,0.102,0.15,0.32,0.215,0.48c0.117,0.35,0.201,0.717,0.25,1.094
							c0.1,0.758,0.037,1.559-0.188,2.354c-0.449,1.594-1.521,2.826-2.799,3.49c-1.293,0.666-2.791,0.762-4.201,0.215
							c-1.402-0.543-2.465-1.6-3.078-2.805c-0.625-1.217-0.799-2.584-0.424-3.916c0.188-0.668,0.512-1.262,0.924-1.783
							c0.205-0.262,0.439-0.5,0.695-0.719c0.129-0.125,0.248-0.184,0.398-0.348c0.16-0.205,0.324-0.395,0.488-0.561
							c0.164-0.17,0.33-0.318,0.498-0.445c0.082-0.066,0.166-0.125,0.25-0.18c0.104-0.047,0.219-0.084,0.324-0.119
							c0.434-0.137,0.844-0.205,1.232-0.207C255.471,190.275,256.135,190.568,256.777,190.963z"/>
						<path fill="#FFFFFF" d="M252.629,204.018c1.473,0.338,2.664,1.258,3.357,2.537c0.689,1.266,0.873,2.889,0.354,4.463
							c-0.516,1.574-1.619,2.773-2.93,3.385c-1.316,0.617-2.82,0.652-4.207,0.053c-1.383-0.598-2.398-1.691-2.967-2.922
							c-0.57-1.234-0.707-2.613-0.277-3.924c0.432-1.313,1.355-2.342,2.549-2.998C249.695,203.959,251.16,203.68,252.629,204.018z"
							/>
					</g>
					<g>
						<path fill="#FFFFFF" d="M252.629,204.018c1.473,0.338,2.664,1.258,3.357,2.537c0.689,1.266,0.873,2.889,0.354,4.463
							c-0.516,1.574-1.619,2.773-2.93,3.385c-1.316,0.617-2.82,0.652-4.207,0.053c-1.383-0.598-2.398-1.691-2.967-2.922
							c-0.57-1.234-0.707-2.613-0.277-3.924c0.432-1.313,1.355-2.342,2.549-2.998C249.695,203.959,251.16,203.68,252.629,204.018z"
							/>
						<path fill="#FFFFFF" d="M248.059,216.961c1.361,0.654,2.318,1.814,2.711,3.215c0.396,1.391,0.213,3.01-0.639,4.43
							c-0.85,1.42-2.193,2.342-3.604,2.652c-1.418,0.311-2.893,0.016-4.115-0.873c-1.217-0.889-1.967-2.18-2.25-3.504
							c-0.289-1.334-0.113-2.705,0.596-3.893c0.711-1.188,1.842-1.982,3.148-2.361C245.211,216.254,246.701,216.307,248.059,216.961
							z"/>
					</g>
					<g>
						<path fill="#FFFFFF" d="M248.059,216.961c1.361,0.654,2.318,1.814,2.711,3.215c0.396,1.391,0.213,3.01-0.639,4.43
							c-0.85,1.42-2.193,2.342-3.604,2.652c-1.418,0.311-2.893,0.016-4.115-0.873c-1.217-0.889-1.967-2.18-2.25-3.504
							c-0.289-1.334-0.113-2.705,0.596-3.893c0.711-1.188,1.842-1.982,3.148-2.361C245.211,216.254,246.701,216.307,248.059,216.961
							z"/>
						<path fill="#FFFFFF" d="M240.748,228.576c1.184,0.939,1.861,2.279,1.941,3.729c0.084,1.443-0.447,2.98-1.582,4.18
							c-1.137,1.201-2.646,1.813-4.09,1.809c-1.451-0.006-2.828-0.611-3.828-1.742c-0.998-1.129-1.453-2.553-1.443-3.908
							c0.012-1.365,0.477-2.668,1.428-3.672c0.955-1.008,2.236-1.541,3.594-1.627C238.121,227.262,239.566,227.641,240.748,228.576z
							"/>
					</g>
					<g>
						<path fill="#FFFFFF" d="M240.748,228.576c1.184,0.939,1.861,2.279,1.941,3.729c0.084,1.443-0.447,2.98-1.582,4.18
							c-1.137,1.201-2.646,1.813-4.09,1.809c-1.451-0.006-2.828-0.611-3.828-1.742c-0.998-1.129-1.453-2.553-1.443-3.908
							c0.012-1.365,0.477-2.668,1.428-3.672c0.955-1.008,2.236-1.541,3.594-1.627C238.121,227.262,239.566,227.641,240.748,228.576z
							"/>
						<path fill="#FFFFFF" d="M231.09,238.332c0.955,1.17,1.328,2.627,1.096,4.063c-0.232,1.424-1.08,2.814-2.451,3.74
							s-2.977,1.201-4.389,0.881c-1.416-0.318-2.629-1.207-3.357-2.533c-0.729-1.318-0.863-2.807-0.561-4.125
							c0.307-1.326,1.041-2.5,2.188-3.275c1.145-0.773,2.506-1.021,3.854-0.809C228.809,236.486,230.139,237.166,231.09,238.332z"/>
					</g>
					<g>
						<path fill="#FFFFFF" d="M231.09,238.332c0.955,1.17,1.328,2.627,1.096,4.063c-0.232,1.424-1.08,2.814-2.451,3.74
							s-2.977,1.201-4.389,0.881c-1.416-0.318-2.629-1.207-3.357-2.533c-0.729-1.318-0.863-2.807-0.561-4.125
							c0.307-1.326,1.041-2.5,2.188-3.275c1.145-0.773,2.506-1.021,3.854-0.809C228.809,236.486,230.139,237.166,231.09,238.332z"/>
						<path fill="#FFFFFF" d="M219.549,245.764c0.676,1.352,0.721,2.855,0.178,4.203c-0.541,1.342-1.676,2.51-3.221,3.111
							c-1.543,0.604-3.172,0.51-4.477-0.109c-1.313-0.623-2.297-1.762-2.715-3.215c-0.418-1.445-0.219-2.926,0.367-4.146
							c0.592-1.227,1.568-2.207,2.854-2.709c1.287-0.502,2.67-0.441,3.936,0.063C217.729,243.461,218.877,244.416,219.549,245.764z"
							/>
					</g>
					<g>
						<path fill="#FFFFFF" d="M219.549,245.764c0.676,1.352,0.721,2.855,0.178,4.203c-0.541,1.342-1.676,2.51-3.221,3.111
							c-1.543,0.604-3.172,0.51-4.477-0.109c-1.313-0.623-2.297-1.762-2.715-3.215c-0.418-1.445-0.219-2.926,0.367-4.146
							c0.592-1.227,1.568-2.207,2.854-2.709c1.287-0.502,2.67-0.441,3.936,0.063C217.729,243.461,218.877,244.416,219.549,245.764z"
							/>
						<path fill="#FFFFFF" d="M206.654,250.465c0.357,1.467,0.07,2.943-0.758,4.135c-0.104,0.148-0.215,0.293-0.334,0.432
							c-0.025,0.033-0.072,0.072-0.08,0.1l-0.004,0.082l0.004,0.154c0.002,0.1,0.018,0.195,0.033,0.277
							c0.002,0.023,0.016,0.039,0.006,0.064l-0.1,0.102l-0.205,0.197c-0.563,0.52-1.252,0.928-2.031,1.201
							c-1.563,0.543-3.186,0.385-4.465-0.287c-1.285-0.666-2.229-1.846-2.592-3.311s-0.109-2.93,0.523-4.133
							c0.637-1.203,1.654-2.141,2.961-2.598c0.654-0.229,1.328-0.307,1.99-0.27l0.248,0.021l0.125,0.014l0.225-0.02
							c0.311-0.016,0.594-0.076,0.891-0.016l0.424,0.066l0.203,0.041c0.059,0.014,0.08,0.039,0.123,0.057
							c0.146,0.084,0.289,0.174,0.43,0.271C205.387,247.814,206.295,249.002,206.654,250.465z"/>
					</g>
					<g>
						<path fill="#FFFFFF" d="M206.654,250.465c0.357,1.467,0.07,2.943-0.758,4.135c-0.104,0.148-0.215,0.293-0.334,0.432
							c-0.025,0.033-0.072,0.072-0.08,0.1l-0.004,0.082l0.004,0.154c0.002,0.1,0.018,0.195,0.033,0.277
							c0.002,0.023,0.016,0.039,0.006,0.064l-0.1,0.102l-0.205,0.197c-0.563,0.52-1.252,0.928-2.031,1.201
							c-1.563,0.543-3.186,0.385-4.465-0.287c-1.285-0.666-2.229-1.846-2.592-3.311s-0.109-2.93,0.523-4.133
							c0.637-1.203,1.654-2.141,2.961-2.598c0.654-0.229,1.328-0.307,1.99-0.27l0.248,0.021l0.125,0.014l0.225-0.02
							c0.311-0.016,0.594-0.076,0.891-0.016l0.424,0.066l0.203,0.041c0.059,0.014,0.08,0.039,0.123,0.057
							c0.146,0.084,0.289,0.174,0.43,0.271C205.387,247.814,206.295,249.002,206.654,250.465z"/>
						<path fill="#FFFFFF" d="M193.553,254.488c0.795,1.283,1.037,2.758,0.627,4.158c-0.389,1.395-1.393,2.678-2.863,3.441
							c-1.465,0.77-3.098,0.85-4.461,0.375c-0.344-0.121-0.67-0.273-0.975-0.459c-0.264-0.203-0.42-0.473-0.668-0.721
							c-0.447-0.49-0.957-1.018-1.367-1.65c-0.408-0.633-0.662-1.326-0.641-2.115c0.008-0.359,0.162-0.766,0.264-1.125
							c0.057-0.342,0.143-0.676,0.258-0.994c0.453-1.285,1.32-2.357,2.543-3c1.227-0.639,2.607-0.727,3.92-0.367
							C191.486,252.406,192.758,253.205,193.553,254.488z"/>
					</g>
					<g>
						<path fill="#FFFFFF" d="M193.553,254.488c0.795,1.283,1.037,2.758,0.627,4.158c-0.389,1.395-1.393,2.678-2.863,3.441
							c-1.465,0.77-3.098,0.85-4.461,0.375c-0.344-0.121-0.67-0.273-0.975-0.459c-0.264-0.203-0.42-0.473-0.668-0.721
							c-0.447-0.49-0.957-1.018-1.367-1.65c-0.408-0.633-0.662-1.326-0.641-2.115c0.008-0.359,0.162-0.766,0.264-1.125
							c0.057-0.342,0.143-0.676,0.258-0.994c0.453-1.285,1.32-2.357,2.543-3c1.227-0.639,2.607-0.727,3.92-0.367
							C191.486,252.406,192.758,253.205,193.553,254.488z"/>
						<path fill="#FFFFFF" d="M181.502,261.078c0.764,1.301,0.912,2.799,0.461,4.18c-0.443,1.379-1.5,2.619-2.998,3.326
							s-3.129,0.725-4.475,0.193c-1.35-0.527-2.412-1.604-2.928-3.018c-0.516-1.42-0.418-2.902,0.084-4.164
							c0.504-1.268,1.412-2.307,2.662-2.896c1.248-0.592,2.635-0.619,3.928-0.209C179.527,258.904,180.738,259.779,181.502,261.078z
							"/>
					</g>
					<g>
						<path fill="#FFFFFF" d="M181.502,261.078c0.764,1.301,0.912,2.799,0.461,4.18c-0.443,1.379-1.5,2.619-2.998,3.326
							s-3.129,0.725-4.475,0.193c-1.35-0.527-2.412-1.604-2.928-3.018c-0.516-1.42-0.418-2.902,0.084-4.164
							c0.504-1.268,1.412-2.307,2.662-2.896c1.248-0.592,2.635-0.619,3.928-0.209C179.527,258.904,180.738,259.779,181.502,261.078z
							"/>
						<path fill="#FFFFFF" d="M168.957,266.65c0.455,1.432,0.273,2.936-0.473,4.176c-0.74,1.242-2.041,2.227-3.656,2.584
							c-1.617,0.357-3.211,0.016-4.404-0.797c-1.199-0.811-2.002-2.098-2.193-3.588c-0.193-1.502,0.23-2.922,0.996-4.047
							c0.771-1.121,1.891-1.938,3.238-2.236c1.352-0.299,2.707-0.031,3.881,0.66C167.514,264.098,168.498,265.207,168.957,266.65z"
							/>
					</g>
					<g>
						<path fill="#FFFFFF" d="M168.957,266.65c0.455,1.432,0.273,2.936-0.473,4.176c-0.74,1.242-2.041,2.227-3.656,2.584
							c-1.617,0.357-3.211,0.016-4.404-0.797c-1.199-0.811-2.002-2.098-2.193-3.588c-0.193-1.502,0.23-2.922,0.996-4.047
							c0.771-1.121,1.891-1.938,3.238-2.236c1.352-0.299,2.707-0.031,3.881,0.66C167.514,264.098,168.498,265.207,168.957,266.65z"
							/>
						<path fill="#FFFFFF" d="M155.494,269.322c0.131,1.498-0.375,2.926-1.373,3.973c-0.99,1.053-2.471,1.73-4.12,1.729
							c-3.038,0-5.5-2.445-5.5-5.463s2.463-5.463,5.5-5.463c1.385,0,2.653,0.557,3.651,1.486
							C154.643,266.518,155.359,267.816,155.494,269.322z"/>
					</g>
				</g>
			</g>
			<path fill="none" stroke="#ED6D41" stroke-width="2" stroke-miterlimit="10" d="M150.001,247.984
				c-5.715,0-10.739-3.033-13.54-7.572c-0.186,0.006-0.37,0.01-0.557,0.01c-4.245,0-8.236-1.654-11.24-4.654
				c-3.005-3.006-4.66-6.998-4.66-11.246s1.655-8.24,4.658-11.244l0.652-0.652c-0.221-0.199-0.439-0.404-0.65-0.615
				c-0.24-0.24-0.472-0.486-0.694-0.738c-0.386,0.029-0.773,0.043-1.166,0.043c-0.301,0-0.603-0.008-0.899-0.025v0.924
				c0,8.77-7.131,15.9-15.901,15.9c-4.642,0-8.826-2-11.732-5.182c-1.202,0.283-2.446,0.432-3.714,0.432
				c-4.244,0-8.238-1.654-11.24-4.656c-4.046-4.043-5.451-9.744-4.219-14.938c-3.111-2.906-5.058-7.041-5.058-11.621
				c0-8.768,7.13-15.902,15.897-15.902h0.926c-0.018-0.299-0.025-0.596-0.025-0.898c0-0.34,0.012-0.674,0.033-1.006
				c-0.295-0.252-0.58-0.52-0.855-0.795c-0.213-0.213-0.42-0.432-0.619-0.654l-0.655,0.652c-3.002,3.004-6.995,4.658-11.241,4.658
				s-8.236-1.654-11.239-4.656c-3.005-3.004-4.661-6.996-4.661-11.244c0-0.246,0.006-0.492,0.016-0.738
				c-4.543-2.799-7.581-7.828-7.581-13.544c0-5.717,3.034-10.74,7.574-13.543c-0.007-0.184-0.009-0.367-0.009-0.553
				c0-4.25,1.656-8.24,4.657-11.245c3.007-3.004,6.997-4.657,11.243-4.657s8.239,1.653,11.24,4.656l0.656,0.656
				c0.197-0.224,0.403-0.441,0.619-0.654c0.238-0.238,0.483-0.467,0.732-0.69c-0.026-0.386-0.041-0.776-0.041-1.165
				c0-0.303,0.008-0.604,0.025-0.9h-0.925c-8.768,0-15.898-7.135-15.898-15.902c0-4.646,2.001-8.833,5.188-11.744
				c-1.234-5.195,0.17-10.896,4.213-14.944c3.008-3.004,7.002-4.656,11.246-4.656c1.264,0,2.507,0.146,3.704,0.431
				c2.904-3.108,7.034-5.051,11.612-5.051c8.768,0,15.9,7.132,15.9,15.9v0.923c0.297-0.014,0.6-0.025,0.9-0.025
				c0.338,0,0.674,0.011,1.01,0.032c0.254-0.293,0.516-0.58,0.793-0.856c0.213-0.213,0.432-0.418,0.655-0.616l-0.655-0.656
				c-3.002-3.002-4.654-6.994-4.654-11.242c0-4.249,1.652-8.24,4.654-11.246c3.004-3.003,6.996-4.654,11.242-4.654
				c0.247,0,0.493,0.005,0.736,0.016c2.803-4.546,7.827-7.58,13.545-7.58c5.715,0,10.739,3.033,13.542,7.572
				c0.18-0.005,0.367-0.008,0.557-0.008c4.242,0,8.236,1.651,11.24,4.654c6.199,6.203,6.199,16.288,0,22.487l-0.656,0.656
				c0.225,0.197,0.441,0.403,0.656,0.615c0.238,0.242,0.467,0.486,0.691,0.737c0.387-0.027,0.773-0.043,1.166-0.043
				c0.301,0,0.602,0.009,0.902,0.025v-0.924c0-8.769,7.129-15.899,15.896-15.899c4.643,0,8.826,2,11.738,5.181
				c1.199-0.285,2.443-0.431,3.711-0.431c4.244,0,8.236,1.652,11.238,4.652c4.047,4.048,5.453,9.748,4.219,14.942
				c3.113,2.905,5.059,7.041,5.059,11.621c0,8.768-7.133,15.9-15.898,15.9h-0.926c0.016,0.297,0.025,0.597,0.025,0.9
				c0,0.338-0.012,0.67-0.031,1.007c0.293,0.253,0.576,0.517,0.852,0.79c0.215,0.218,0.424,0.436,0.623,0.66l0.65-0.654
				c3.006-3.004,7.002-4.657,11.246-4.657c4.248,0,8.238,1.653,11.24,4.651c3.287,3.291,4.83,7.666,4.635,11.98
				c4.549,2.799,7.59,7.826,7.59,13.549c0,5.716-3.033,10.738-7.576,13.544c0.008,0.182,0.01,0.365,0.01,0.553
				c0,4.25-1.652,8.242-4.658,11.246c-3.004,3.002-6.994,4.654-11.24,4.654c-4.244,0-8.24-1.652-11.24-4.654l-0.656-0.654
				c-0.199,0.219-0.406,0.439-0.619,0.652c-0.236,0.238-0.482,0.469-0.734,0.691c0.027,0.385,0.041,0.771,0.041,1.164
				c0,0.303-0.006,0.602-0.025,0.902h0.926c8.768,0,15.9,7.131,15.9,15.898c0,4.646-2.004,8.836-5.191,11.744
				c1.234,5.193-0.17,10.896-4.215,14.945c-3.006,3.002-6.998,4.656-11.242,4.656c-1.266,0-2.506-0.145-3.705-0.432
				c-2.904,3.107-7.035,5.053-11.613,5.053c-8.768,0-15.9-7.135-15.9-15.902v-0.924c-0.299,0.018-0.6,0.023-0.898,0.023
				c-0.338,0-0.674-0.008-1.006-0.029c-0.256,0.291-0.52,0.574-0.797,0.852c-0.213,0.215-0.43,0.422-0.652,0.623l0.652,0.652
				c6.197,6.199,6.197,16.289,0,22.484c-3.006,3.004-6.998,4.658-11.244,4.658c-0.246,0-0.492-0.008-0.734-0.016
				C160.742,244.951,155.719,247.984,150.001,247.984z"/>
			<radialGradient id="SVGID_5_" cx="150.0015" cy="148.021" r="98.4901" gradientUnits="userSpaceOnUse">
				<stop  offset="0" style="stop-color:#ED6D41"/>
				<stop  offset="0.285" style="stop-color:#EB6C40"/>
				<stop  offset="0.4696" style="stop-color:#E5673C"/>
				<stop  offset="0.6258" style="stop-color:#DA5D36"/>
				<stop  offset="0.766" style="stop-color:#CB512F"/>
				<stop  offset="0.8944" style="stop-color:#B74328"/>
				<stop  offset="1" style="stop-color:#A23424"/>
			</radialGradient>
			<path fill="url(#SVGID_5_)" d="M234.064,143.602h-11.18l6.74-6.74c1.723-1.725,1.723-4.521,0-6.246
				c-1.725-1.725-4.521-1.725-6.246,0l-12.986,12.986h-11.268l6.74-6.74c1.727-1.725,1.727-4.521,0-6.246
				c-1.725-1.725-4.52-1.725-6.244,0l-12.988,12.986h-18.18c-0.469-1.975-1.248-3.826-2.281-5.508l12.984-12.986h18.105
				c2.439,0,4.416-1.977,4.416-4.414c0-2.44-1.977-4.42-4.416-4.42h-9.27l7.963-7.964h18.107c2.441,0,4.418-1.979,4.418-4.417
				c0-2.44-1.977-4.417-4.418-4.417h-9.273l7.779-7.775c1.723-1.726,1.723-4.521,0-6.246c-1.729-1.725-4.523-1.725-6.25,0
				l-7.904,7.905v-9.532c0-2.441-1.977-4.417-4.418-4.417c-2.438,0-4.414,1.976-4.414,4.417v18.365l-7.969,7.966v-9.531
				c0-2.44-1.977-4.418-4.416-4.418c-2.441,0-4.416,1.978-4.416,4.418v18.366l-12.857,12.856c-1.682-1.035-3.533-1.813-5.508-2.287
				v-18.36L167.221,98.4c1.725-1.725,1.725-4.522,0-6.246c-1.725-1.726-4.52-1.726-6.246,0l-6.559,6.556V87.445l12.805-12.803
				c1.725-1.726,1.725-4.522,0-6.247s-4.52-1.725-6.246,0l-6.559,6.556V63.955c0-2.44-1.977-4.417-4.415-4.417
				s-4.416,1.977-4.416,4.417v11.182l-6.742-6.742c-1.726-1.725-4.521-1.725-6.245,0c-1.728,1.725-1.728,4.521,0,6.247
				l12.987,12.987v11.265l-6.742-6.741c-1.726-1.726-4.521-1.726-6.245,0c-1.728,1.724-1.728,4.521,0,6.246l12.987,12.987v18.176
				c-1.978,0.475-3.828,1.252-5.507,2.287l-12.988-12.986v-18.105c0-2.441-1.978-4.418-4.416-4.418s-4.418,1.977-4.418,4.418v9.271
				l-7.965-7.965V83.958c0-2.442-1.978-4.417-4.418-4.417c-2.439,0-4.414,1.978-4.414,4.417v9.271l-7.779-7.774
				c-1.725-1.725-4.52-1.725-6.244,0c-1.726,1.725-1.726,4.52,0,6.246l7.905,7.905h-9.533c-2.438,0-4.415,1.979-4.415,4.416
				c0,2.439,1.977,4.418,4.415,4.418h18.365l7.967,7.967h-9.534c-2.439,0-4.414,1.977-4.414,4.418c0,2.438,1.979,4.414,4.414,4.414
				h18.369l12.856,12.855c-1.036,1.682-1.813,3.533-2.285,5.508h-18.362l-12.801-12.805c-1.724-1.721-4.521-1.723-6.25,0
				c-1.724,1.727-1.724,4.523,0,6.25l6.559,6.555H89.425l-12.801-12.805c-1.727-1.723-4.521-1.723-6.246,0
				c-1.726,1.727-1.726,4.523,0,6.25l6.555,6.555H65.936c-2.438,0-4.415,1.977-4.415,4.418c0,2.438,1.977,4.416,4.415,4.416h11.184
				l-6.741,6.744c-1.726,1.725-1.726,4.52,0,6.246c0.862,0.861,1.994,1.295,3.123,1.295c1.128,0,2.261-0.434,3.12-1.295l12.99-12.99
				h11.265l-6.742,6.744c-1.724,1.725-1.724,4.52,0,6.246c0.861,0.861,1.994,1.295,3.126,1.295c1.131,0,2.258-0.434,3.124-1.295
				l12.984-12.99h18.179c0.472,1.975,1.249,3.826,2.285,5.508l-12.989,12.986h-18.104c-2.438,0-4.418,1.979-4.418,4.418
				c0,2.441,1.979,4.416,4.418,4.416h9.272l-7.968,7.969H85.938c-2.438,0-4.415,1.977-4.415,4.416c0,2.438,1.977,4.418,4.415,4.418
				h9.273l-7.775,7.775c-1.726,1.723-1.726,4.52,0,6.244c0.859,0.863,1.994,1.293,3.121,1.293c1.131,0,2.264-0.43,3.123-1.293
				l7.908-7.904v9.531c0,2.439,1.977,4.418,4.415,4.418c2.44,0,4.417-1.979,4.417-4.418v-18.365l7.967-7.965v9.531
				c0,2.441,1.977,4.416,4.417,4.416s4.418-1.977,4.418-4.416v-18.367l12.856-12.855c1.679,1.033,3.529,1.814,5.507,2.283v18.363
				l-12.805,12.805c-1.724,1.723-1.724,4.518,0,6.244c0.864,0.863,1.992,1.293,3.124,1.293c1.129,0,2.262-0.43,3.121-1.293
				l6.56-6.557v11.264l-12.805,12.803c-1.724,1.727-1.724,4.521,0,6.248c0.864,0.863,1.992,1.293,3.124,1.293
				c1.129,0,2.262-0.43,3.121-1.293l6.56-6.555v10.994c0,2.441,1.978,4.42,4.416,4.42s4.415-1.979,4.415-4.42v-11.18l6.742,6.74
				c0.863,0.865,1.994,1.293,3.123,1.293c1.133,0,2.26-0.428,3.123-1.293c1.725-1.727,1.725-4.521,0-6.242l-12.988-12.992v-11.264
				l6.742,6.74c0.863,0.863,1.994,1.293,3.123,1.293c1.133,0,2.264-0.43,3.123-1.293c1.725-1.727,1.725-4.521,0-6.244
				l-12.988-12.988v-18.18c1.975-0.469,3.826-1.25,5.508-2.283l12.986,12.986v18.105c0,2.441,1.977,4.418,4.418,4.418
				c2.439,0,4.416-1.977,4.416-4.418v-9.273l7.965,7.967v18.105c0,2.439,1.979,4.416,4.418,4.416s4.416-1.977,4.416-4.416v-9.271
				l7.775,7.775c0.863,0.863,1.992,1.293,3.127,1.293c1.129,0,2.258-0.43,3.123-1.293c1.723-1.725,1.723-4.521,0-6.244l-7.91-7.906
				h9.535c2.439,0,4.42-1.979,4.42-4.418s-1.98-4.416-4.42-4.416h-18.367l-7.967-7.967h9.533c2.441,0,4.418-1.979,4.418-4.418
				c0-2.438-1.979-4.418-4.418-4.418h-18.367l-12.854-12.855c1.033-1.682,1.813-3.533,2.281-5.508h18.363l12.805,12.805
				c0.859,0.863,1.992,1.293,3.121,1.293c1.131,0,2.264-0.43,3.127-1.293c1.723-1.725,1.723-4.521,0-6.244l-6.559-6.561h11.264
				l12.805,12.805c0.861,0.863,1.99,1.293,3.123,1.293c1.129,0,2.26-0.43,3.123-1.293c1.723-1.725,1.723-4.521,0-6.244l-6.559-6.561
				h10.998c2.439,0,4.418-1.978,4.418-4.416C238.482,145.579,236.504,143.602,234.064,143.602z"/>
			<g>
				<g>
					<g>
						<g>
							<path fill="#FFFFFF" d="M150.009,5.32c-2.575,0-4.659-2.072-4.659-4.632c0-2.559,2.084-4.632,4.659-4.632
								c2.567,0,4.655,2.074,4.655,4.632C154.664,3.248,152.576,5.32,150.009,5.32z"/>
							<path fill="#FFFFFF" d="M150.009-7.652c-2.575,0-4.659-2.077-4.659-4.634c0-2.559,2.084-4.633,4.659-4.633
								c2.567,0,4.655,2.074,4.655,4.633C154.664-9.729,152.576-7.652,150.009-7.652z"/>
							<path fill="#FFFFFF" d="M150.009-20.629c-2.575,0-4.659-2.072-4.659-4.632s2.084-4.632,4.659-4.632
								c2.567,0,4.655,2.072,4.655,4.632S152.576-20.629,150.009-20.629z"/>
						</g>
						<g>
							<path fill="#FFFFFF" d="M150.009-20.629c-2.575,0-4.659-2.072-4.659-4.632s2.084-4.632,4.659-4.632
								c2.567,0,4.655,2.072,4.655,4.632S152.576-20.629,150.009-20.629z"/>
							<path fill="#FFFFFF" d="M150.009-33.602c-2.575,0-4.659-2.076-4.659-4.634c0-2.557,2.084-4.632,4.659-4.632
								c2.567,0,4.655,2.075,4.655,4.632C154.664-35.678,152.576-33.602,150.009-33.602z"/>
							<path fill="#FFFFFF" d="M150.009-46.578c-2.575,0-4.659-2.072-4.659-4.631c0-2.559,2.084-4.634,4.659-4.634
								c2.567,0,4.655,2.075,4.655,4.634C154.664-48.65,152.576-46.578,150.009-46.578z"/>
						</g>
						<g>
							<path fill="#FFFFFF" d="M150.009-46.578c-2.575,0-4.659-2.072-4.659-4.631c0-2.559,2.084-4.634,4.659-4.634
								c2.567,0,4.655,2.075,4.655,4.634C154.664-48.65,152.576-46.578,150.009-46.578z"/>
							<path fill="#FFFFFF" d="M150.009-59.551c-2.575,0-4.659-2.076-4.659-4.634c0-2.559,2.084-4.633,4.659-4.633
								c2.567,0,4.655,2.074,4.655,4.633C154.664-61.626,152.576-59.551,150.009-59.551z"/>
							<path fill="#FFFFFF" d="M150.009-72.527c-2.575,0-4.659-2.073-4.659-4.633c0-2.556,2.084-4.633,4.659-4.633
								c2.567,0,4.655,2.077,4.655,4.633C154.664-74.6,152.576-72.527,150.009-72.527z"/>
						</g>
						<g>
							<path fill="#FFFFFF" d="M150.009-72.527c-2.575,0-4.659-2.073-4.659-4.633c0-2.556,2.084-4.633,4.659-4.633
								c2.567,0,4.655,2.077,4.655,4.633C154.664-74.6,152.576-72.527,150.009-72.527z"/>
							<path fill="#FFFFFF" d="M150.009-85.5c-2.575,0-4.659-2.074-4.659-4.633c0-2.558,2.084-4.632,4.659-4.632
								c2.567,0,4.655,2.075,4.655,4.632C154.664-87.574,152.576-85.5,150.009-85.5z"/>
							<path fill="#FFFFFF" d="M150.009-98.473c-2.575,0-4.659-2.075-4.659-4.633c0-2.561,2.084-4.635,4.659-4.635
								c2.567,0,4.655,2.075,4.655,4.635C154.664-100.548,152.576-98.473,150.009-98.473z"/>
						</g>
						<g>
							<path fill="#FFFFFF" d="M150.009-98.473c-2.575,0-4.659-2.075-4.659-4.633c0-2.561,2.084-4.635,4.659-4.635
								c2.567,0,4.655,2.075,4.655,4.635C154.664-100.548,152.576-98.473,150.009-98.473z"/>
						</g>
					</g>
				</g>
			</g>
			<path fill="#FFFFFF" d="M88.945-29.894c-25.871,32.709,43.006,44.969,43.006,44.969c2.454-6.89,8.061-8.708,8.061-8.708
				S115.993-64.091,88.945-29.894z M131.128,12.585c0,0-53.417-9.585-33.354-35.158C118.752-49.308,137.38,5.777,137.38,5.777
				S133.031,7.199,131.128,12.585z"/>
			<path fill="#FFFFFF" d="M211.336-30.299C237.82,2.41,167.307,14.67,167.307,14.67c-2.512-6.89-8.25-8.709-8.25-8.709
				S183.645-64.496,211.336-30.299z M168.15,12.18c0,0,54.686-9.585,34.145-35.158C180.82-49.713,161.75,5.372,161.75,5.372
				S166.201,6.793,168.15,12.18z"/>
			<path fill="#FFFFFF" d="M131.951,15.381c0,0-12.517,2.394-33.667-6.157C77.136,0.673,74.097-3.945,74.097-3.945
				s2.836,7.012,1.013,12.484c-1.823,5.473-7.599,7.15-7.599,7.15S96.792,25.813,131.951,15.381z"/>
			<path fill="#FFFFFF" d="M167.301,16.018c0,0,12.832,2.395,34.512-6.157c21.682-8.551,24.799-13.168,24.799-13.168
				s-2.908,7.012-1.039,12.484c1.869,5.473,7.791,7.149,7.791,7.149S203.344,26.45,167.301,16.018z"/>
			<path fill="#FFFFFF" d="M132.005,30.152c-0.791-10.314,7.26-19.362,18.004-19.35c10.741-0.012,18.797,9.036,17.999,19.35
				c-0.799,10.355-8.846,18.165-17.999,18.18C140.852,48.317,132.798,40.508,132.005,30.152z"/>
			<path fill="none" stroke="#ED6D41" stroke-width="0.8" stroke-miterlimit="10" d="M150.001,257.721
				c-7.141,0-13.777-2.9-18.561-7.949c-5.146-0.898-9.884-3.35-13.656-7.117c-1.769-1.77-3.246-3.75-4.411-5.885
				c-2.335,0.701-4.809,1.078-7.369,1.078c-5.353,0-10.55-1.693-14.856-4.756c-0.197,0.006-0.394,0.008-0.59,0.008
				c-6.845,0-13.281-2.666-18.123-7.508c-5.059-5.055-7.701-11.811-7.506-18.777c-2.977-4.273-4.623-9.402-4.623-14.666
				c0-2.52,0.365-4.957,1.047-7.26c-2.17-1.17-4.18-2.664-5.973-4.455c-3.83-3.828-6.299-8.652-7.168-13.887
				c-5.025-4.781-7.912-11.402-7.912-18.527c0-7.143,2.9-13.779,7.951-18.564c0.899-5.145,3.351-9.883,7.12-13.657
				c1.769-1.768,3.749-3.245,5.882-4.409c-0.701-2.334-1.078-4.807-1.078-7.367c0-5.35,1.691-10.545,4.752-14.853
				c-0.18-6.941,2.459-13.671,7.498-18.715c4.853-4.846,11.289-7.511,18.133-7.511c0.215,0,0.43,0.002,0.645,0.008
				c4.273-2.98,9.405-4.627,14.672-4.627c2.521,0,4.957,0.365,7.26,1.047c1.171-2.171,2.664-4.183,4.457-5.977
				c3.827-3.828,8.65-6.295,13.885-7.162c4.781-5.025,11.401-7.911,18.526-7.911c7.141,0,13.776,2.9,18.561,7.948
				c5.148,0.898,9.889,3.35,13.66,7.12c1.785,1.786,3.252,3.771,4.398,5.885c2.336-0.703,4.813-1.081,7.375-1.081
				c5.352,0,10.549,1.694,14.859,4.756c0.195-0.005,0.393-0.007,0.59-0.007c6.842,0,13.277,2.664,18.119,7.5
				c5.061,5.063,7.705,11.819,7.508,18.785c2.979,4.272,4.623,9.401,4.623,14.667c0,2.52-0.365,4.955-1.045,7.258
				c2.168,1.17,4.18,2.662,5.973,4.452c3.785,3.792,6.264,8.661,7.146,13.87c5.037,4.783,7.932,11.41,7.932,18.547
				c0,7.14-2.9,13.777-7.951,18.564c-0.898,5.15-3.352,9.891-7.125,13.664c-1.766,1.764-3.742,3.24-5.875,4.402
				c0.701,2.334,1.08,4.809,1.08,7.367c0,5.352-1.693,10.547-4.756,14.854c0.178,6.941-2.461,13.672-7.5,18.717
				c-4.854,4.846-11.289,7.512-18.129,7.512c-0.217,0-0.432-0.004-0.646-0.008c-4.273,2.979-9.406,4.627-14.672,4.627
				c-2.523,0-4.963-0.367-7.268-1.049c-1.154,2.148-2.639,4.166-4.451,5.979c-3.828,3.826-8.65,6.293-13.881,7.16
				C163.744,254.834,157.123,257.721,150.001,257.721z"/>
		</g>
	</g>
</g>
</svg>
